<?xml version="1.0" encoding="UTF-8"?>
<svg version="1.1" xmlns="http://www.w3.org/2000/svg" width="4500" height="4500">
<path d="M0 0 C1485 0 2970 0 4500 0 C4500 1485 4500 2970 4500 4500 C3015 4500 1530 4500 0 4500 C0 3015 0 1530 0 0 Z " fill="#008489" transform="translate(0,0)"/>
<path d="M0 0 C1.41297363 -0.0049926 1.41297363 -0.0049926 2.85449219 -0.01008606 C4.83772296 -0.01511584 6.82096208 -0.01749562 8.80419922 -0.01733398 C11.77716727 -0.01950544 14.74975431 -0.03766256 17.72265625 -0.05664062 C28.86105265 -0.08923549 39.72706605 0.41535543 50.76756287 1.90408325 C53.76074758 2.29033378 56.76159022 2.59881709 59.76356506 2.90834045 C65.14337556 3.59003659 70.38485577 5.19421243 75.61816406 6.58544922 C77.0745826 6.97207746 78.5322696 7.35396031 79.99121094 7.73095703 C115.01805477 16.78854561 147.43053839 32.35326825 174.8125 56.16796875 C175.33328125 56.61962402 175.8540625 57.0712793 176.390625 57.53662109 C189.42555949 68.94647658 202.41771115 81.28389226 212.8125 95.16796875 C213.28574707 95.791875 213.75899414 96.41578125 214.24658203 97.05859375 C259.73307741 157.27337582 270.89121765 221.25272535 273.3903656 294.68162537 C274.17620461 360.79187084 274.17620461 360.79187084 290.8125 424.16796875 C291.3178125 425.3384375 291.823125 426.50890625 292.34375 427.71484375 C297.96875971 439.74279004 306.23020868 450.02066776 318.8125 455.16796875 C330.83314632 458.29021455 344.03252752 457.20860906 354.8125 451.16796875 C356.06353516 450.53375 356.06353516 450.53375 357.33984375 449.88671875 C381.4757012 436.77023382 395.37369548 410.46041513 405.8125 386.16796875 C406.21976318 385.2248584 406.21976318 385.2248584 406.63525391 384.26269531 C413.06675923 369.06384456 416.86385462 352.71351766 419.625 336.48046875 C419.73674561 335.82385254 419.84849121 335.16723633 419.96362305 334.49072266 C421.86521559 322.31021049 421.99750079 310.00770972 422.12890625 297.7109375 C422.14736854 296.25475591 422.16620803 294.79857905 422.1854248 293.34240723 C422.25316001 288.01348355 422.31366541 282.68446994 422.375 277.35546875 C422.519375 265.41359375 422.66375 253.47171875 422.8125 241.16796875 C455.1525 241.16796875 487.4925 241.16796875 520.8125 241.16796875 C520.87876883 277.61038644 520.93411012 314.05274681 520.96569599 350.49520762 C520.96944763 354.8080031 520.97333064 359.12079846 520.97729492 363.43359375 C520.97808185 364.29211059 520.97886878 365.15062743 520.97967956 366.03515993 C520.99269555 379.89425002 521.01632815 393.75330237 521.04395839 407.61237015 C521.072119 421.85741035 521.08869866 436.10243093 521.09476548 450.34749782 C521.09885995 459.12117471 521.11174096 467.89474489 521.1362494 476.66838889 C521.15223852 482.70360687 521.15687095 488.73877054 521.15300413 494.77400811 C521.15110281 498.2440631 521.15379259 501.71393307 521.17011642 505.18395424 C521.25800872 527.13138459 520.23299068 548.34095944 512.8125 569.16796875 C512.4414917 570.21694336 512.4414917 570.21694336 512.06298828 571.28710938 C506.39802326 586.91999463 497.97347168 600.8177132 486.8125 613.16796875 C485.94367187 614.13089844 485.07484375 615.09382813 484.1796875 616.0859375 C468.20831009 633.16940422 447.9343716 643.91176053 426.05200195 651.40136719 C424.57228951 651.907886 423.09668283 652.42658038 421.62573242 652.95800781 C415.79523991 655.01560033 409.95993488 656.23728955 403.875 657.29296875 C402.95009766 657.46183594 402.02519531 657.63070312 401.07226562 657.8046875 C391.66798848 659.47860929 382.39416155 660.32358711 372.84375 660.37109375 C371.92396362 660.37679382 371.00417725 660.3824939 370.05651855 660.3883667 C368.12037277 660.39774797 366.1842115 660.40432304 364.24804688 660.40820312 C361.34735817 660.41785279 358.44739652 660.44891991 355.546875 660.48046875 C343.65506164 660.54763443 332.45493978 659.56936022 320.8125 657.16796875 C320.08080093 657.02291901 319.34910187 656.87786926 318.5952301 656.72842407 C285.64978894 650.19594851 254.33024513 632.28948752 235 604.35546875 C223.48867745 587.0509344 216.28111343 568.96428938 211.375 548.79296875 C211.21088623 548.12201172 211.04677246 547.45105469 210.87768555 546.75976562 C209.87250233 542.31828454 209.8125 538.88070064 209.8125 534.16796875 C237.8625 534.16796875 265.9125 534.16796875 294.8125 534.16796875 C296.4625 540.43796875 298.1125 546.70796875 299.8125 553.16796875 C307.06484187 569.02478403 316.08849454 579.07357989 332.1171875 586.19140625 C347.93841865 592.04468224 369.9745689 593.0254893 385.8125 587.16796875 C386.60398437 586.87792969 387.39546875 586.58789062 388.2109375 586.2890625 C403.40363887 580.09272184 411.42496489 569.96099161 417.8125 555.16796875 C424.45445392 538.10928585 424.0960968 520.29871122 424.0078125 502.29296875 C424.0040737 500.02897264 424.00123083 497.76497488 423.99923706 495.50097656 C423.99166884 489.59594101 423.97208033 483.69100678 423.9498291 477.78601074 C423.92922241 471.73886484 423.92020391 465.69170228 423.91015625 459.64453125 C423.88882682 447.81896636 423.85477504 435.99347604 423.8125 424.16796875 C423.64317963 424.71080505 423.47385925 425.25364136 423.29940796 425.81292725 C422.52189007 428.30168713 421.74143656 430.78951725 420.9609375 433.27734375 C420.69466553 434.13118652 420.42839355 434.9850293 420.15405273 435.86474609 C410.28000913 467.28628148 391.12735981 494.28388868 361.8125 510.16796875 C351.96866122 515.07247862 341.503371 517.81501182 330.8125 520.16796875 C330.07990967 520.34521484 329.34731934 520.52246094 328.5925293 520.70507812 C325.01441075 521.30085513 321.48751332 521.33037892 317.87109375 521.3359375 C317.10757095 521.3392659 316.34404816 521.3425943 315.55738831 521.34602356 C313.94280598 521.35107373 312.32821327 521.35343248 310.71362305 521.35327148 C308.28220637 521.35544003 305.85125733 521.37356596 303.41992188 521.39257812 C294.69007302 521.42502153 286.37402701 521.08654822 277.8125 519.16796875 C277.06863037 519.00159912 276.32476074 518.83522949 275.55834961 518.66381836 C260.27912431 514.95327783 246.61747578 508.64702334 234.8125 498.16796875 C234.1421875 497.63945312 233.471875 497.1109375 232.78125 496.56640625 C214.20332551 481.60085597 204.84834097 457.49843234 198.8125 435.16796875 C198.60544434 434.41032227 198.39838867 433.65267578 198.18505859 432.87207031 C195.1290408 421.45641497 193.32816328 409.87528357 191.8125 398.16796875 C191.66903641 397.08285255 191.66903641 397.08285255 191.52267456 395.97581482 C188.875647 374.99041374 189.42480229 353.71698745 189.3125 332.60546875 C189.7269211 275.90179571 189.7269211 275.90179571 180.8125 220.16796875 C180.44412235 218.55584358 180.08135658 216.94243096 179.72265625 215.328125 C169.93206969 171.63473051 147.6686226 129.52311485 109.48901367 104.14331055 C102.99708365 100.04663204 96.14035314 96.66109211 89.25 93.29296875 C88.13882812 92.74535889 87.02765625 92.19774902 85.8828125 91.63354492 C78.04290049 87.9007196 70.20880837 85.34029805 61.8125 83.16796875 C60.40041546 82.77175628 58.98882577 82.37376771 57.578125 81.97265625 C16.93203631 71.22402391 -26.93243588 77.43440137 -63.54296875 97.96484375 C-79.91447627 107.57411208 -94.162051 121.33348057 -99.375 140.04296875 C-101.3897231 149.89648845 -101.31531144 161.58792913 -98.1875 171.16796875 C-97.93097656 172.02390625 -97.67445312 172.87984375 -97.41015625 173.76171875 C-91.87705595 190.66973341 -80.54619337 201.86227891 -65.1875 210.16796875 C-54.91070889 215.31876989 -44.33810927 218.4416054 -33.11865234 220.75927734 C-30.31365211 221.35290192 -27.53480536 222.04911738 -24.75 222.73046875 C-19.8804421 223.85052696 -14.99300355 224.74235466 -10.0625 225.54296875 C27.17202069 231.59408262 66.56965246 238.25596008 99.8125 257.16796875 C101.01039987 257.80975945 102.20964558 258.44904383 103.41015625 259.0859375 C111.87862092 263.65187333 119.46460156 268.99653468 126.8125 275.16796875 C127.35261719 275.62155762 127.89273437 276.07514648 128.44921875 276.54248047 C147.46812239 292.76614738 159.98945686 312.16669281 166.8125 336.16796875 C167.21275391 337.4828125 167.21275391 337.4828125 167.62109375 338.82421875 C174.15931331 364.43600297 165.12608361 393.56690102 152.29467773 415.63330078 C129.56489339 453.11851544 90.68459139 474.93152492 49.03686523 485.5612793 C26.8519402 490.85298892 4.1002432 493.58420304 -18.6875 493.48046875 C-19.50633667 493.47897827 -20.32517334 493.47748779 -21.16882324 493.47595215 C-35.65561133 493.42889204 -49.87810285 492.5580698 -64.1875 490.16796875 C-65.39744629 489.9671167 -65.39744629 489.9671167 -66.63183594 489.76220703 C-103.22516202 483.34709993 -136.14314472 466.33968751 -163.1875 441.16796875 C-163.91582031 440.50539063 -164.64414063 439.8428125 -165.39453125 439.16015625 C-185.44393413 420.15837983 -199.70778783 393.10508016 -205.1875 366.16796875 C-205.41179687 365.19085937 -205.63609375 364.21375 -205.8671875 363.20703125 C-207.88591472 353.33462555 -207.1875 344.66236765 -207.1875 334.16796875 C-177.8175 334.16796875 -148.4475 334.16796875 -118.1875 334.16796875 C-117.8575 339.44796875 -117.5275 344.72796875 -117.1875 350.16796875 C-112.63988059 370.72320847 -101.81811755 387.3666377 -84.1875 399.16796875 C-64.26736021 411.74796416 -42.15884761 415.58058787 -18.8125 415.48046875 C-18.12217682 415.4783136 -17.43185364 415.47615845 -16.72061157 415.47393799 C8.73746454 415.34747546 39.74944534 413.20522031 59.39453125 394.67578125 C66.16384097 387.4775621 69.89081429 378.69097601 70.3125 368.73046875 C69.69968564 354.99156618 63.16388525 342.44433572 53.19921875 333.125 C33.73002044 317.16089467 8.68088849 309.44850164 -15.3125 303.23046875 C-16.14375397 303.01286896 -16.97500793 302.79526917 -17.83145142 302.57107544 C-28.30053076 299.83355072 -38.77536357 297.29018637 -49.375 295.10546875 C-72.53128493 290.33266884 -96.25087578 285.12799836 -118.1875 276.16796875 C-119.06083984 275.81154297 -119.93417969 275.45511719 -120.83398438 275.08789062 C-138.71684564 267.65033186 -155.82745183 258.32237569 -170.1875 245.16796875 C-170.95586182 244.4711499 -170.95586182 244.4711499 -171.73974609 243.76025391 C-190.39947635 226.64950807 -204.16025182 203.44368981 -205.34863281 177.67382812 C-205.38640448 174.37978715 -205.41862169 171.0862279 -205.42773438 167.79199219 C-205.43734927 165.70075275 -205.46839292 163.61053718 -205.5 161.51953125 C-205.75567215 129.23097373 -191.02101027 98.70591193 -169.25390625 75.38671875 C-167.40817316 73.40491082 -165.67139326 71.37193659 -163.9375 69.29296875 C-150.57556446 54.06586601 -133.82794791 41.94655958 -116.1875 32.16796875 C-115.40246094 31.73097656 -114.61742187 31.29398438 -113.80859375 30.84375 C-95.65892459 20.82917212 -77.30470859 13.17568591 -57.1875 8.16796875 C-56.49092285 7.98782227 -55.7943457 7.80767578 -55.07666016 7.62207031 C-37.12828466 2.98075554 -18.560935 0.02357235 0 0 Z " fill="#F28270" transform="translate(1687.1875,1919.83203125)"/>
<path d="M0 0 C2.51181194 -0.00217892 5.02317772 -0.02038817 7.53491211 -0.03930664 C21.91022559 -0.08980622 36.11954827 1.00015815 50.22045898 3.93530273 C51.03796631 4.10304199 51.85547363 4.27078125 52.69775391 4.44360352 C84.54116955 11.24569994 114.6953345 24.439235 138.34545898 47.18530273 C138.84400391 47.65274902 139.34254883 48.12019531 139.85620117 48.60180664 C167.92371143 74.97161643 184.44288663 111.8713477 187.34545898 150.18530273 C187.34545898 156.12530273 187.34545898 162.06530273 187.34545898 168.18530273 C157.64545898 168.18530273 127.94545898 168.18530273 97.34545898 168.18530273 C97.01545898 161.58530273 96.68545898 154.98530273 96.34545898 148.18530273 C93.18785872 128.57494319 84.75286863 111.07691156 68.34545898 99.18530273 C40.64576636 81.67584077 3.98940597 77.44736613 -27.99804688 83.63891602 C-30.2168979 84.15932472 -32.40203234 84.74231967 -34.59204102 85.37280273 C-35.36346436 85.59274902 -36.1348877 85.81269531 -36.9296875 86.03930664 C-51.63348405 90.41381257 -63.90389263 97.63676673 -71.65454102 111.18530273 C-77.64802006 123.88273402 -78.73113985 138.24801757 -75.85375977 152.01733398 C-70.27659232 166.64062871 -57.10753544 175.58784164 -43.44384766 181.93286133 C-19.50202752 192.4560282 5.95616696 198.5517494 31.27279663 204.71940613 C32.26872833 204.96209732 33.26466003 205.20478851 34.29077148 205.45483398 C35.26760895 205.69281204 36.24444641 205.9307901 37.25088501 206.17597961 C47.29011722 208.63626205 57.19911372 211.4542274 67.0769043 214.4987793 C69.23952712 215.15324501 71.4087072 215.76739085 73.58764648 216.36499023 C117.237851 228.42041429 161.66792443 248.58203058 185.34545898 289.18530273 C200.16883635 316.28428947 201.07779098 350.5144353 192.61401367 379.70825195 C185.89043966 401.12642955 174.69328986 418.89213445 159.34545898 435.18530273 C158.75764648 435.83756836 158.16983398 436.48983398 157.56420898 437.16186523 C143.71271174 451.92464519 124.91498853 462.54558638 106.34545898 470.18530273 C105.40444336 470.57975586 104.46342773 470.97420898 103.49389648 471.38061523 C86.27692594 478.31099072 68.7009764 482.6199499 50.34545898 485.18530273 C49.0810498 485.36407959 47.81664063 485.54285645 46.51391602 485.72705078 C35.85712305 487.1529791 25.33931191 487.546505 14.59545898 487.49780273 C13.75362061 487.49597992 12.91178223 487.4941571 12.04443359 487.49227905 C-37.18602519 487.31430271 -89.81966321 476.93668051 -127.65454102 443.18530273 C-128.0812207 443.51401367 -128.50790039 443.84272461 -128.94750977 444.18139648 C-131.16779587 445.87064509 -133.41037068 447.52791088 -135.65454102 449.18530273 C-136.51821289 449.83885742 -137.38188477 450.49241211 -138.27172852 451.16577148 C-160.76888428 467.54632655 -186.58180348 477.55186217 -213.65454102 483.18530273 C-215.01008618 483.48443581 -216.36556038 483.78389079 -217.72094727 484.08374023 C-244.42076031 489.61539381 -273.74376014 490.64648025 -300.65454102 486.18530273 C-301.47148437 486.0510791 -302.28842773 485.91685547 -303.13012695 485.77856445 C-348.42420202 478.12788174 -394.92284962 459.91677427 -422.65454102 421.18530273 C-431.32621352 408.45377938 -437.88389161 395.43329588 -442.40454102 380.68530273 C-442.70303955 379.72611938 -442.70303955 379.72611938 -443.00756836 378.74755859 C-452.3722319 346.34099975 -446.93654315 311.63362249 -431.24902344 282.34008789 C-427.37750207 275.40097638 -422.80812508 269.21749257 -417.65454102 263.18530273 C-417.22415527 262.67660645 -416.79376953 262.16791016 -416.3503418 261.64379883 C-393.99963031 235.49752715 -362.79034791 218.47764752 -329.65454102 210.18530273 C-328.87159668 209.98694824 -328.08865234 209.78859375 -327.28198242 209.58422852 C-294.04392372 201.26369117 -260.02808524 199.30736463 -226.09204102 204.43530273 C-225.41168793 204.5375415 -224.73133484 204.63978027 -224.03036499 204.74511719 C-180.07189745 211.54355822 -136.04316631 231.00460901 -108.65454102 267.18530273 C-107.78442383 268.29711914 -107.78442383 268.29711914 -106.89672852 269.43139648 C-98.63404866 280.51875992 -86.65454102 298.80210525 -86.65454102 313.18530273 C-120.31454102 313.18530273 -153.97454102 313.18530273 -188.65454102 313.18530273 C-190.63454102 307.74030273 -190.63454102 307.74030273 -192.65454102 302.18530273 C-201.18797546 284.98815241 -216.2528365 274.97901878 -233.65454102 268.18530273 C-252.61151798 262.28391701 -273.51095534 262.26021917 -292.65454102 267.18530273 C-294.19754883 267.5681543 -294.19754883 267.5681543 -295.77172852 267.95874023 C-306.70374628 271.11945625 -316.69992736 277.11684845 -324.65454102 285.18530273 C-325.31454102 285.18530273 -325.97454102 285.18530273 -326.65454102 285.18530273 C-326.91879883 285.76666992 -327.18305664 286.34803711 -327.45532227 286.94702148 C-328.70126454 289.27250982 -330.12219264 291.00246378 -331.84204102 292.99780273 C-346.69377641 311.94229193 -348.61554329 337.78382312 -345.90454102 360.93530273 C-343.55208093 376.37332207 -338.00274313 390.37510296 -327.65454102 402.18530273 C-326.8559668 403.10762695 -326.8559668 403.10762695 -326.04125977 404.04858398 C-312.38326502 418.74967141 -290.94740431 425.53549707 -271.33422852 426.53295898 C-247.096775 427.20077279 -222.91492231 421.37911839 -204.81542969 404.51269531 C-196.90881473 396.76108627 -192.40935387 387.04284159 -187.65454102 377.18530273 C-183.03454102 377.18530273 -178.41454102 377.18530273 -173.65454102 377.18530273 C-174.05286133 375.99678711 -174.45118164 374.80827148 -174.86157227 373.58374023 C-177.82610985 364.4332756 -180.22026409 355.41362223 -181.52954102 345.87280273 C-181.64918213 345.02830566 -181.76882324 344.18380859 -181.89208984 343.3137207 C-182.86463961 335.48091421 -182.65454102 328.24221921 -182.65454102 320.18530273 C-150.64454102 320.18530273 -118.63454102 320.18530273 -85.65454102 320.18530273 C-85.32454102 327.11530273 -84.99454102 334.04530273 -84.65454102 341.18530273 C-83.22772475 354.45469402 -77.75162705 367.33508104 -68.65454102 377.18530273 C-68.07317383 377.8569043 -67.49180664 378.52850586 -66.89282227 379.22045898 C-55.63621657 391.46821235 -38.6835645 398.69712146 -22.65454102 402.18530273 C-21.51500977 402.46374023 -20.37547852 402.74217773 -19.20141602 403.02905273 C10.09866015 409.4704449 49.77567454 408.32655068 76.09545898 393.06030273 C77.5244724 392.12047941 78.94360875 391.16518189 80.34545898 390.18530273 C81.23233398 389.60780273 82.11920898 389.03030273 83.03295898 388.43530273 C92.72657654 379.00367484 97.33288907 366.65632926 97.88647461 353.30249023 C98.01823926 339.1677372 94.19397582 327.91608844 84.67749023 317.32983398 C74.77177712 307.77399153 61.1690751 302.33223364 48.37182617 297.92138672 C46.05944441 297.08140708 43.79790129 296.14270775 41.52514648 295.20092773 C36.39180482 293.12993026 31.19678745 291.64110212 25.84545898 290.24780273 C23.89870448 289.73009944 21.95209166 289.21186308 20.00561523 288.69311523 C19.04800293 288.43949219 18.09039063 288.18586914 17.10375977 287.92456055 C13.8778344 287.05997372 10.66542403 286.15263926 7.453125 285.23901367 C1.46249425 283.53799533 -4.53174924 281.95550335 -10.60302734 280.56787109 C-63.38082382 268.47996969 -129.98242582 251.60375447 -160.90454102 202.81030273 C-171.52501313 184.67413361 -177.07923599 165.7891684 -176.96704102 144.74780273 C-176.96140137 143.62180664 -176.95576172 142.49581055 -176.94995117 141.33569336 C-176.45822868 106.84695948 -164.55075647 77.08387622 -140.65454102 52.18530273 C-139.82438477 51.29198242 -138.99422852 50.39866211 -138.13891602 49.47827148 C-131.28036313 42.30887776 -123.95987239 36.57070809 -115.65454102 31.18530273 C-114.69185303 30.56075195 -114.69185303 30.56075195 -113.7097168 29.92358398 C-79.52703562 8.10306568 -40.12822394 -0.003876 0 0 Z " fill="#F2F7F0" transform="translate(3023.654541015625,1953.814697265625)"/>
<path d="M0 0 C0.8545021 0.00092179 1.70900419 0.00184359 2.58940029 0.00279331 C3.56681683 0.00141865 4.54423336 0.00004398 5.55126858 -0.00137234 C6.63235897 0.00222294 7.71344936 0.00581821 8.82730007 0.00952244 C10.52464039 0.0093034 10.52464039 0.0093034 12.25627041 0.00907993 C16.01686389 0.00977964 19.77740855 0.01757472 23.53799343 0.02539158 C26.13731261 0.02725555 28.73663215 0.02867955 31.33595181 0.0296793 C37.49122295 0.03311442 43.64647378 0.04100527 49.80173725 0.05102879 C56.80767064 0.06219089 63.81360485 0.06770062 70.81954491 0.07272422 C85.23481851 0.08318791 99.65007722 0.10078675 114.06533718 0.12304783 C120.42309336 13.79228765 120.42309336 13.79228765 122.92471218 19.89257908 C123.39465603 21.03396336 123.86459988 22.17534763 124.34878445 23.35131931 C124.83274685 24.53411472 125.31670925 25.71691013 125.81533718 26.93554783 C126.34487709 28.22352396 126.87475054 29.51136301 127.40493679 30.79907322 C128.20806184 32.7497154 129.01103444 34.70041785 129.81300259 36.65153599 C132.06488977 42.12951671 134.34307204 47.59622169 136.62783718 53.06054783 C141.15760112 63.90761441 145.63875692 74.77460354 150.12176418 85.6410532 C156.44343338 100.9636403 162.78529289 116.27653201 169.21304226 131.55493259 C174.07286963 143.11532649 178.87153894 154.70080567 183.66839504 166.28744602 C188.29173819 177.45368489 192.93941354 188.60898977 197.62783718 199.74804783 C202.86100409 212.182579 207.98814057 224.65924639 213.09738064 237.14514256 C217.51948669 247.94925598 221.97469584 258.73793555 226.50283718 269.49804783 C233.29944894 285.65022702 240.00814698 301.83840453 246.71174526 318.02937412 C249.41036852 324.54582797 252.11576508 331.05944866 254.82314968 337.57226658 C255.98662391 340.3726183 257.14997033 343.17302309 258.31326199 345.97345066 C259.05701555 347.7631555 259.80122789 349.55266975 260.545928 351.34198093 C261.58229548 353.83228713 262.61695653 356.32329616 263.65127468 358.81445408 C263.95365047 359.53976826 264.25602627 360.26508244 264.56756496 361.01237583 C264.85348507 361.70188831 265.13940517 362.39140079 265.43398952 363.10180759 C265.67805538 363.6887389 265.92212124 364.2756702 266.17358303 364.88038731 C267.52331432 368.27480837 268.7908457 371.69978834 270.06533718 375.12304783 C256.86118108 375.47168928 243.65813156 375.73765977 230.45029831 375.90023041 C224.31600306 375.9782888 218.1848718 376.08401416 212.05239773 376.25463963 C206.12578236 376.41849194 200.20219462 376.50748193 194.27348804 376.54620647 C192.02017653 376.57377305 189.76701796 376.6276124 187.51500797 376.70899868 C168.96347706 377.35233632 168.96347706 377.35233632 162.83390713 371.83712864 C159.93371596 368.74053458 157.49722193 365.42309918 155.20515156 361.85865402 C153.75601616 359.65204177 152.07888961 357.71325281 150.30361843 355.76367283 C149.81006863 355.19140965 149.31651882 354.61914646 148.80801296 354.02954197 C143.70109849 348.11448312 138.52541348 342.27877006 133.24502468 336.51757908 C131.40288687 334.49386854 129.60045581 332.44680504 127.81533718 330.37304783 C102.54377128 301.44918103 68.59215243 266.38072881 28.06533718 262.12304783 C13.84275863 261.24473041 1.29664827 262.73179698 -9.93466282 272.12304783 C-15.29700257 277.69642778 -18.59312226 284.20487906 -21.65731907 291.21289158 C-22.00095493 291.99307652 -22.3445908 292.77326145 -22.69863987 293.57708836 C-26.38091743 302.01841961 -29.76770808 310.57371821 -33.12020969 319.15020847 C-34.21084169 321.94001261 -35.30644124 324.72782064 -36.40341282 327.51513767 C-37.88050229 331.26841959 -39.35632191 335.022196 -40.83114719 338.77636814 C-43.58833109 345.78969865 -46.36386808 352.79564484 -49.15622044 359.7950449 C-49.67267601 361.09075962 -50.18806771 362.38689893 -50.70236301 363.68347263 C-51.40235571 365.44815525 -52.10589912 367.21142822 -52.80966282 368.97461033 C-53.19895969 369.95252537 -53.58825657 370.93044041 -53.98935032 371.93798923 C-54.93466282 374.12304783 -54.93466282 374.12304783 -55.93466282 375.12304783 C-59.07026168 375.21839741 -62.18379895 375.24855662 -65.31967258 375.23657322 C-66.79755756 375.23679226 -66.79755756 375.23679226 -68.30529881 375.23701572 C-71.57891089 375.23631615 -74.85246686 375.22852168 -78.12606907 375.22070408 C-80.3890845 375.21884006 -82.65210033 375.21741608 -84.91511631 375.21641636 C-90.8844523 375.21258993 -96.85376414 375.20275858 -102.82309055 375.19171238 C-108.90910611 375.18150094 -114.99512555 375.17691931 -121.08114719 375.17187595 C-133.03232971 375.16113642 -144.98349426 375.14405851 -156.93466282 375.12304783 C-156.09571932 370.56620348 -154.61371926 366.46501921 -152.87216282 362.18554783 C-152.52983616 361.33694187 -152.1875095 360.48833591 -151.8348093 359.61401463 C-147.46795103 348.86489584 -142.92649834 338.18748591 -138.41269016 327.49951267 C-133.39755036 315.62097334 -128.42983083 303.72356237 -123.49716282 291.81054783 C-122.97327976 290.54546391 -122.97327976 290.54546391 -122.43881321 289.25482273 C-120.66073085 284.96051854 -118.88343016 280.66589142 -117.10653782 276.3710947 C-113.40792999 267.43237424 -109.70228699 258.49656868 -105.99716282 249.56054783 C-105.63534916 248.68780216 -105.2735355 247.8150565 -104.90075779 246.91586399 C-100.54924094 236.41957228 -96.19023835 225.92648842 -91.81527805 215.43994236 C-87.71675447 205.61067164 -83.63834179 195.77306511 -79.55966282 185.93554783 C-79.18757694 185.0381287 -78.81549107 184.14070957 -78.43212986 183.21609592 C-74.44472686 173.59837478 -70.46065138 163.97929951 -66.48446751 154.35693455 C-58.57962066 135.2294718 -50.61112041 116.12852727 -42.64631748 97.02597141 C-39.22731981 88.82588883 -35.81028777 80.62498807 -32.3943491 72.42363071 C-29.70465909 65.9670883 -27.00828329 59.51336195 -24.30966282 53.06054783 C-21.09985236 45.37898044 -17.93143557 37.68121862 -14.78231907 29.97461033 C-14.41968967 29.08784107 -14.05706028 28.20107182 -13.68344212 27.28743076 C-11.85366454 22.81262593 -10.02653994 18.33676964 -8.20370579 13.85913181 C-7.5294942 12.20877974 -6.8551824 10.55846861 -6.18075657 8.90820408 C-5.86768055 8.13646854 -5.55460453 7.36473301 -5.23204136 6.56961155 C-2.60977031 0.16598581 -2.60977031 0.16598581 0 0 Z " fill="#F2F7F0" transform="translate(1055.9346628189087,2060.8769521713257)"/>
<path d="M0 0 C0.84852539 0.27150879 1.69705078 0.54301758 2.57128906 0.82275391 C29.25678364 9.50536811 53.16109529 23.04912969 73 43 C73.80824219 43.80824219 74.61648438 44.61648437 75.44921875 45.44921875 C91.46952214 62.36419877 102.11394891 84.36226033 107 107 C107.20753906 107.93714844 107.41507813 108.87429687 107.62890625 109.83984375 C113.57026707 141.45785485 106.33395863 175.69117269 88.89648438 202.58203125 C84.15242687 209.51735637 78.67595935 215.82044351 73 222 C72.35933594 222.72316406 71.71867187 223.44632813 71.05859375 224.19140625 C54.55437978 241.87712994 32.22559225 253.35170933 10 262 C9.24638184 262.29390625 8.49276367 262.5878125 7.71630859 262.890625 C-14.10796172 271.20650063 -38.30334746 275.03366376 -61.5625 275.75 C-62.21976074 275.77123932 -62.87702148 275.79247864 -63.55419922 275.81436157 C-78.11352398 276.25679008 -92.50103455 275.4076435 -107 274 C-107.80373047 273.92378418 -108.60746094 273.84756836 -109.43554688 273.76904297 C-151.41924063 269.58426683 -196.75327256 249.90447901 -224.29296875 217.140625 C-247.79036408 187.67478372 -258.86098256 152.93792745 -254.69091797 115.203125 C-250.89005313 88.64075921 -238.53053903 64.28807679 -220 45 C-219.31260742 44.2579834 -219.31260742 44.2579834 -218.61132812 43.50097656 C-166.54517202 -12.67930476 -70.16899172 -22.93114184 0 0 Z " fill="#F2F7F0" transform="translate(3493,2166)"/>
<path d="M0 0 C2.64 0 5.28 0 8 0 C8 1485 8 2970 8 4500 C-1477 4500 -2962 4500 -4492 4500 C-4492 4497.36 -4492 4494.72 -4492 4492 C-3009.64 4492 -1527.28 4492 0 4492 C0 3009.64 0 1527.28 0 0 Z " fill="#FEFEFE" transform="translate(4492,0)"/>
<path d="M0 0 C4.61408008 3.71140537 8.85286234 7.7797653 13 12 C13.74765625 12.74894531 14.4953125 13.49789062 15.265625 14.26953125 C36.95847862 37.28616137 44.55860292 68.21782215 44.34057617 99.01611328 C44.339727 100.73303207 44.34021067 102.44995195 44.34190369 104.16687012 C44.34275377 108.76493007 44.3252907 113.36274846 44.30418181 117.96075296 C44.28524776 122.78932328 44.28365154 127.61790098 44.28010559 132.44650269 C44.27083373 141.56202581 44.24628676 150.67743917 44.21605712 159.79291427 C44.17604244 172.13051369 44.16001891 184.46814377 44.14255047 196.80579185 C44.11446135 216.20394322 44.05465975 235.60186313 44 255 C11.66 255 -20.68 255 -54 255 C-54.03738281 243.49125 -54.07476563 231.9825 -54.11328125 220.125 C-54.14357261 212.81509233 -54.17460797 205.50520022 -54.20898438 198.1953125 C-54.26335841 186.60385585 -54.31477609 175.01244237 -54.34643555 163.42089844 C-54.3695126 154.97678203 -54.40301771 146.53278009 -54.44870156 138.08875465 C-54.47250373 133.62362637 -54.49131724 129.15861054 -54.49761391 124.69342041 C-54.50372426 120.47773444 -54.52393445 116.26233571 -54.55427551 112.04675674 C-54.56296157 110.51189302 -54.56679829 108.9769916 -54.56500816 107.44210434 C-54.54841005 86.61585107 -58.35196073 66.38224243 -72 50 C-74.48140061 47.52342702 -76.93952139 45.69833377 -80 44 C-80.70125 43.59136719 -81.4025 43.18273438 -82.125 42.76171875 C-90.81763895 38.48881684 -101.24032815 38.67329818 -110.52734375 40.8125 C-140.10341822 51.13723872 -157.73932135 80.35226751 -170.60791016 106.99951172 C-176.549905 119.80679279 -180.60110009 133.32031722 -184 147 C-184.25209229 147.98758301 -184.25209229 147.98758301 -184.50927734 148.99511719 C-187.85915705 162.93504423 -188.32397471 176.80084787 -188.4140625 191.05859375 C-188.43105019 192.73116917 -188.44887242 194.40373632 -188.4675293 196.07629395 C-188.53007156 202.1966015 -188.57661892 208.31706412 -188.625 214.4375 C-188.74875 228.153125 -188.8725 241.86875 -189 256 C-221.67 256 -254.34 256 -288 256 C-288 164.92 -288 73.84 -288 -20 C-255.66 -20 -223.32 -20 -190 -20 C-189.67 7.06 -189.34 34.12 -189 62 C-188.01 58.04 -187.02 54.08 -186 50 C-184.7037905 46.7542706 -183.4037339 43.68563735 -181.875 40.5625 C-181.28404541 39.34228149 -181.28404541 39.34228149 -180.68115234 38.09741211 C-174.61205795 25.87838251 -166.53795217 15.670978 -157 6 C-156.14792969 5.13503906 -155.29585937 4.27007813 -154.41796875 3.37890625 C-113.00612161 -36.41868597 -44.59741673 -32.92179693 0 0 Z " fill="#F49067" transform="translate(2517,2181)"/>
<path d="M0 0 C0.68035309 0.10223877 1.36070618 0.20447754 2.06167603 0.30981445 C46.02014356 7.10825549 90.04887471 26.56930628 117.4375 62.75 C118.30761719 63.86181641 118.30761719 63.86181641 119.1953125 64.99609375 C127.45799236 76.08345719 139.4375 94.36680252 139.4375 108.75 C105.7775 108.75 72.1175 108.75 37.4375 108.75 C35.4575 103.305 35.4575 103.305 33.4375 97.75 C24.90406556 80.55284967 9.83920451 70.54371605 -7.5625 63.75 C-26.51947696 57.84861428 -47.41891432 57.82491644 -66.5625 62.75 C-67.59117187 63.00523437 -68.61984375 63.26046875 -69.6796875 63.5234375 C-80.61170526 66.68415351 -90.60788635 72.68154572 -98.5625 80.75 C-99.2225 80.75 -99.8825 80.75 -100.5625 80.75 C-100.82675781 81.33136719 -101.09101563 81.91273438 -101.36328125 82.51171875 C-102.60922352 84.83720709 -104.03015163 86.56716104 -105.75 88.5625 C-120.60173539 107.50698919 -122.52350228 133.34852039 -119.8125 156.5 C-117.46003991 171.93801934 -111.91070212 185.93980023 -101.5625 197.75 C-101.03011719 198.36488281 -100.49773438 198.97976562 -99.94921875 199.61328125 C-86.291224 214.31436867 -64.85536329 221.10019434 -45.2421875 222.09765625 C-21.00473398 222.76547006 3.17711871 216.94381566 21.27661133 200.07739258 C29.18322628 192.32578353 33.68268714 182.60753885 38.4375 172.75 C43.3875 172.75 48.3375 172.75 53.4375 172.75 C53.83839844 173.7915625 54.23929688 174.833125 54.65234375 175.90625 C64.32924134 200.52571408 78.55957594 219.2737339 97.4375 237.75 C75.81490551 260.81410079 42.48019916 272.19876094 12.4375 278.75 C11.73367187 278.90742676 11.02984375 279.06485352 10.3046875 279.22705078 C-16.91488881 285.23894425 -47.0656009 286.3083422 -74.5625 281.75 C-75.37944336 281.61577637 -76.19638672 281.48155273 -77.03808594 281.34326172 C-122.332161 273.69257901 -168.8308086 255.48147154 -196.5625 216.75 C-205.2341725 204.01847665 -211.79185059 190.99799315 -216.3125 176.25 C-216.51149902 175.61054443 -216.71049805 174.97108887 -216.91552734 174.31225586 C-226.28019088 141.90569701 -220.84450214 107.19831975 -205.15698242 77.90478516 C-201.28546105 70.96567364 -196.71608406 64.78218983 -191.5625 58.75 C-190.91692139 57.98695557 -190.91692139 57.98695557 -190.25830078 57.20849609 C-167.9075893 31.06222441 -136.69830689 14.04234478 -103.5625 5.75 C-102.3880835 5.45246826 -102.3880835 5.45246826 -101.18994141 5.14892578 C-67.9518827 -3.17161156 -33.93604423 -5.1279381 0 0 Z " fill="#F69961" transform="translate(2797.5625,2158.25)"/>
<path d="M0 0 C32.34 0 64.68 0 98 0 C98 90.75 98 181.5 98 275 C65.66 275 33.32 275 0 275 C0 184.25 0 93.5 0 0 Z " fill="#F3F7F0" transform="translate(1354,2161)"/>
<path d="M0 0 C16.07170426 12.66685392 25.36819825 29.62769175 27.91015625 49.81640625 C28.29828961 54.67002255 28.30436748 59.52190447 28.24633789 64.38793945 C28.22254814 66.51356611 28.22583614 68.63794357 28.23242188 70.76367188 C28.21182095 81.92283065 27.51622978 92.64782646 22.72265625 102.87890625 C22.41368408 103.55518066 22.10471191 104.23145508 21.78637695 104.92822266 C12.91503328 123.88647092 -0.58535995 136.21142986 -20.16430664 143.86669922 C-43.85087933 152.40861143 -71.6432904 151.0576696 -94.50488281 140.73608398 C-101.0097696 137.58202411 -106.59021024 133.51348187 -112.08984375 128.81640625 C-112.75371094 128.2646875 -113.41757813 127.71296875 -114.1015625 127.14453125 C-122.33326928 119.67125139 -127.41692347 109.1442217 -131.08984375 98.81640625 C-131.41339844 98.04393555 -131.73695313 97.27146484 -132.0703125 96.47558594 C-135.52096723 87.47545869 -135.46254867 77.79467506 -135.46044922 68.28417969 C-135.46481049 66.08318903 -135.50122216 63.88423048 -135.5390625 61.68359375 C-135.70650375 40.46189984 -128.43427053 21.56236999 -113.77734375 6.06640625 C-101.68361853 -5.51137506 -86.37399087 -11.38223676 -70.08984375 -14.18359375 C-69.15140625 -14.36921875 -68.21296875 -14.55484375 -67.24609375 -14.74609375 C-44.60707877 -17.88417503 -18.83718373 -13.31224489 0 0 Z " fill="#008489" transform="translate(3473.08984375,2232.18359375)"/>
<path d="M0 0 C1.03310303 -0.00161133 2.06620605 -0.00322266 3.13061523 -0.00488281 C18.40453339 0.21525533 33.8334002 3.42626255 45.125 14.375 C53.9774183 23.72363009 55.72818734 34.05635928 55.59545898 46.52514648 C55.20649171 58.13504169 52.59617535 68.05072365 44.125 76.375 C31.93257158 87.14970419 17.19250988 89.55359392 1.5 89.5625 C0.38753906 89.57474609 -0.72492188 89.58699219 -1.87109375 89.59960938 C-18.65737123 89.62892185 -33.27292657 86.25865777 -45.77734375 74.6015625 C-54.86305823 65.18930014 -56.29372562 52.99120932 -56.0859375 40.45703125 C-55.64685069 28.73991829 -50.98416192 19.99080303 -42.5 12.0625 C-30.30553094 1.90044245 -15.44754775 0.02290731 0 0 Z " fill="#F2F7F0" transform="translate(1402.875,2056.625)"/>
<path d="M0 0 C0.66 0 1.32 0 2 0 C2.35771484 0.96357422 2.71542969 1.92714844 3.08398438 2.91992188 C6.7737055 12.82707693 10.59972891 22.6740945 14.5 32.5 C18.05643269 41.45967761 21.55907784 50.4328727 24.92533875 59.46592712 C26.81472102 64.52915901 28.78131237 69.55480947 30.8125 74.5625 C33.641789 81.58978143 36.43334165 88.63043571 39.1875 95.6875 C42.53472052 104.25690981 45.88770181 112.82401717 49.25546265 121.38537598 C49.79279151 122.75168878 50.32975945 124.11814359 50.86636353 125.48474121 C54.33737324 134.3224088 57.85789257 143.13847725 61.42578125 151.9375 C62.5421214 154.69845585 63.65802369 157.45958839 64.77389526 160.22073364 C65.50648975 162.02827109 66.24193336 163.83465646 66.98025513 165.63986206 C68.01183371 168.16216992 69.03412085 170.68806446 70.0546875 173.21484375 C70.36855911 173.97470581 70.68243073 174.73456787 71.0058136 175.51745605 C71.72976741 177.32232864 72.37335453 179.15907914 73 181 C72.67 181.66 72.34 182.32 72 183 C71.63874023 182.52804199 71.27748047 182.05608398 70.90527344 181.56982422 C53.70932918 159.15426453 35.51049445 136.3134407 13 119 C11.98808594 118.20980469 10.97617188 117.41960938 9.93359375 116.60546875 C3.14957625 111.45243065 -3.9764756 107.17882789 -11.5 103.1875 C-12.32935059 102.7435791 -13.15870117 102.2996582 -14.01318359 101.84228516 C-21.11439261 98.17807783 -28.44351549 95.55695764 -36 93 C-24.281287 61.89055855 -12.18577034 30.92904138 0 0 Z " fill="#02858A" transform="translate(1111,2151)"/>
</svg>
