<?xml version="1.0" encoding="UTF-8"?>
<svg version="1.1" xmlns="http://www.w3.org/2000/svg" width="2250" height="2251">
<path d="M0 0 C0.66016113 0.17660156 1.32032227 0.35320313 2.00048828 0.53515625 C31.23688603 8.47863035 57.4949382 29.95341404 72.71850586 55.99560547 C88.74319275 84.41430171 93.10406771 111.5771548 94 143.9375 C93.75023725 182.55947956 93.75023725 182.55947956 108.58203125 216.79296875 C113.8405099 221.33256677 118.2419431 222.50498628 125.046875 222.38671875 C132.81759189 221.36912487 139.86339243 216.58111682 144.95703125 210.765625 C152.52518389 200.50480332 158.22523123 189.53413882 161.875 177.3125 C162.06602295 176.67296387 162.2570459 176.03342773 162.45385742 175.37451172 C166.11017312 162.13881473 166.38983061 148.81339259 166.625 135.1875 C166.74875 128.855625 166.8725 122.52375 167 116 C183.5 116 200 116 217 116 C217.04526223 134.2727121 217.08205609 152.54537834 217.10362434 170.8181324 C217.11390797 179.30374289 217.12791215 187.78931591 217.15087891 196.27490234 C217.17090247 203.67662898 217.18373757 211.07832846 217.18817699 218.48008144 C217.19076929 222.39407458 217.19680053 226.30799007 217.21146011 230.22195816 C217.22518624 233.91716309 217.2291928 237.61225948 217.22621536 241.30748749 C217.22701512 243.28721004 217.23769716 245.26692119 217.24884033 247.24661255 C217.20019566 268.72724527 212.92279846 287.74295773 197.875 303.6875 C180.45808501 320.34405854 157.93056166 325.5219224 134.51245117 325.35351562 C114.00413307 324.87701334 94.65106217 318.91396706 79.453125 304.671875 C68.74977163 293.01408247 61 276.96197846 61 261 C75.19 261 89.38 261 104 261 C105.32 264.96 106.64 268.92 108 273 C111.82395405 280.12046617 117.42581869 284.97327577 125.09765625 287.4765625 C134.11326005 289.95724199 143.90124781 290.02450353 152.39453125 285.8125 C159.79267339 281.29754758 163.37875515 276.0651407 165.62109375 267.7421875 C167.9583994 257.21914106 167.31546413 246.40509936 167.1875 235.6875 C167.17242454 233.48243102 167.15874121 231.27735207 167.14648438 229.07226562 C167.11370908 223.71462302 167.06373736 218.3573591 167 213 C166.67604248 213.80099121 166.35208496 214.60198242 166.01831055 215.42724609 C165.58301025 216.49023926 165.14770996 217.55323242 164.69921875 218.6484375 C164.27213623 219.69692871 163.84505371 220.74541992 163.4050293 221.82568359 C156.38882428 237.67706458 144.94801293 247.83684037 129 254 C114.66415991 258.61825721 96.33563672 256.99065267 82.75 250.875 C68.78689245 243.2044771 60.30887539 230.1746103 55.87109375 215.1875 C50.59131654 195.09685565 50.65976588 174.54058832 50.54370117 153.90820312 C50.32874908 121.68900978 47.90006468 85.95407811 25 61 C23.98679687 59.84951172 23.98679687 59.84951172 22.953125 58.67578125 C10.12719966 44.89025201 -9.43906364 36.49859688 -28.2265625 35.6640625 C-30.02584382 35.63437139 -31.82547659 35.62178771 -33.625 35.625 C-34.57922852 35.62661133 -35.53345703 35.62822266 -36.51660156 35.62988281 C-45.17934768 35.77798876 -52.77648167 37.2807817 -61 40 C-61.94101562 40.30035156 -62.88203125 40.60070312 -63.8515625 40.91015625 C-74.05889925 44.56014818 -82.66386637 51.21016756 -89 60 C-92.24281192 66.85314253 -92.78521487 74.45203756 -90.85546875 81.76953125 C-87.45368598 90.63901966 -81.07805861 97.02797167 -72.52172852 100.97509766 C-62.35185712 105.10842326 -51.50568717 106.96539182 -40.75720215 108.89202881 C-13.14734149 113.89661572 15.92520084 120.83174534 32.87719727 145.25366211 C36.74678009 151.1588607 39.78048947 156.9933577 41 164 C41.16242188 164.8971875 41.32484375 165.794375 41.4921875 166.71875 C43.53222933 182.20641448 38.65998637 196.39924043 29.89453125 209.03515625 C14.37739278 229.00145655 -8.76049633 237.26883851 -33 241 C-33.85722656 241.13277344 -34.71445312 241.26554687 -35.59765625 241.40234375 C-62.16470979 244.72892164 -91.72656552 240.52715384 -114 225 C-118.28827875 221.6196463 -122.1621027 217.87705952 -126 214 C-126.73992188 213.28199219 -127.47984375 212.56398438 -128.2421875 211.82421875 C-141.71026969 197.91069416 -146 180.88995147 -146 162 C-131.15 162 -116.3 162 -101 162 C-100.01 168.435 -100.01 168.435 -99 175 C-95.3839898 184.45725745 -88.31945518 192.76956055 -79 197 C-60.96270622 203.67628816 -40.56469049 204.42132171 -22.4765625 197.19140625 C-17.00143083 194.55747067 -13.08230009 191.86020328 -10 186.5625 C-8.09805013 179.78680359 -8.75490807 174.17536151 -12 168 C-24.86121231 150.02763636 -53.52902674 146.89248905 -73.37402344 142.20263672 C-98.36918829 136.27559898 -124.70774496 128.54614295 -139.1171875 105.359375 C-146.65187412 91.91574326 -147.25999206 75.31008827 -143.4375 60.5 C-134.51453644 34.31774013 -114.50721959 18.27696654 -90.5703125 6.28125 C-63.32264692 -6.28473224 -28.79814485 -8.21832246 0 0 Z " fill="#F3F8F0" transform="translate(888,965)"/>
<path d="M0 0 C14.81000185 11.68635839 24.21033802 26.93867372 28.4375 45.1875 C28.68367065 46.23671631 28.68367065 46.23671631 28.93481445 47.30712891 C30.27535985 53.79305812 30 59.05002525 30 66 C14.82 66 -0.36 66 -16 66 C-16.33 61.71 -16.66 57.42 -17 53 C-19.55435398 43.31474117 -23.98258974 36.10680864 -32.38671875 30.37109375 C-34.88082181 29.02564363 -37.34006001 27.97517919 -40 27 C-40.83402344 26.68289063 -41.66804688 26.36578125 -42.52734375 26.0390625 C-55.25653699 22.05776533 -72.59775285 21.87492112 -85 27 C-85.73089844 27.26683594 -86.46179687 27.53367187 -87.21484375 27.80859375 C-92.79970723 30.14862035 -96.01258668 33.79168072 -99 39 C-101.32670401 44.81676002 -102.19812213 51.06843755 -100.34765625 57.140625 C-96.20861509 66.44902659 -88.207676 70.48052244 -79.14453125 74.1484375 C-69.25612069 77.87427424 -58.90751486 80.33240944 -48.70214844 83.02246094 C14.05361759 99.59289665 14.05361759 99.59289665 28.56640625 124.12890625 C36.6562577 140.33065233 36.89289589 157.93060484 31.67578125 175.01025391 C25.39462805 193.50425628 10.00189577 206.62461846 -6.99609375 215.14453125 C-34.8922707 228.45261275 -71.21640841 228.68372803 -100.13671875 218.51953125 C-109.54976807 214.95123319 -118.44084224 210.69857672 -126 204 C-129.64328109 205.30620271 -132.37850044 206.89610779 -135.4375 209.25 C-158.22938266 225.49132675 -190.63396133 228.24869204 -217.625 223.8125 C-235.60422828 220.49873669 -252.54211805 213.58291129 -266 201 C-266.79148437 200.26265625 -267.58296875 199.5253125 -268.3984375 198.765625 C-281.03525159 185.91316562 -286.53102766 168.94910266 -286.42236328 151.2175293 C-285.86550134 132.91205786 -277.91780131 117.34512476 -264.69140625 104.8125 C-242.10611288 85.82453579 -212.35884651 79.80342946 -183.46875 82.2109375 C-160.47579846 84.46917381 -139.56423081 91.26731939 -123 108 C-122.21882813 108.74765625 -121.43765625 109.4953125 -120.6328125 110.265625 C-113.16947991 117.85460292 -107.92316577 127.47987884 -106 138 C-113.15254753 138.25388141 -120.30393229 138.42879585 -127.45996094 138.54931641 C-129.89301972 138.59955943 -132.32577724 138.66776962 -134.7578125 138.75439453 C-138.25856722 138.87594851 -141.7553305 138.93245222 -145.2578125 138.9765625 C-146.34240753 139.02817535 -147.42700256 139.07978821 -148.54446411 139.13296509 C-151.66366047 139.13527348 -154.05362799 139.03441584 -157 138 C-159.12844017 135.64180057 -160.43321938 133.39171151 -161.78903198 130.52548218 C-165.15445331 123.50687271 -171.1243928 119.88826052 -178.12109375 117.00390625 C-190.0799573 112.8337191 -202.75184643 112.94982034 -214.53515625 117.77734375 C-223.11536191 122.0334521 -229.58609696 128.44170679 -232.8125 137.5625 C-236.31551489 149.61699241 -236.22008046 163.20177165 -230.7109375 174.6875 C-224.95142507 183.80416139 -216.76550171 189.82722841 -206.25 192.25 C-192.64571905 194.55898346 -179.95049 192.87735055 -168.4140625 185.03125 C-163.78818884 181.13892912 -161.12696821 176.30089342 -158.5 170.9375 C-157.7575 169.9784375 -157.7575 169.9784375 -157 169 C-153.90625 168.87890625 -153.90625 168.87890625 -151 169 C-151.20496094 168.21496094 -151.40992188 167.42992187 -151.62109375 166.62109375 C-153.89420459 157.75704907 -155 150.25425496 -155 141 C-138.83 141 -122.66 141 -106 141 C-105.01 148.425 -105.01 148.425 -104 156 C-100.7424392 165.53138161 -95.39900182 172.41980665 -86.30078125 176.9765625 C-69.07332731 184.63970839 -47.64178838 185.45802312 -29.89453125 178.83984375 C-24.25629833 176.34042091 -20.96531517 173.40110977 -18 168 C-15.29814278 160.84007837 -14.69543363 153.11070818 -17.7890625 145.97265625 C-26.78097659 131.32453814 -47.66181791 128.1706889 -63 124 C-131.68584898 105.20037991 -131.68584898 105.20037991 -145.82421875 80.859375 C-154.01921568 64.11221421 -153.55951161 46.86063042 -148.15625 29.25 C-145.80560947 22.76547439 -142.20603837 17.4294508 -138 12 C-137.46503906 11.29875 -136.93007812 10.5975 -136.37890625 9.875 C-106.13098205 -27.26393811 -36.04889574 -27.56978928 0 0 Z " fill="#008389" transform="translate(1573,996)"/>
<path d="M0 0 C19.47 0 38.94 0 59 0 C68.36346755 21.64541849 77.4007642 43.41446731 86.38186646 65.22079468 C90.3871222 74.94437892 94.40900027 84.66102609 98.4375 94.375 C98.77663422 95.19299072 99.11576843 96.01098145 99.46517944 96.85375977 C103.69679798 107.05921446 107.93976629 117.25990146 112.19140625 127.45703125 C112.63334824 128.51708374 113.07529022 129.57713623 113.53062439 130.66931152 C115.67341048 135.80853482 117.81716659 140.94734992 119.96264648 146.08544922 C122.31484149 151.72097812 124.65935839 157.35966385 127 163 C127.42474609 164.02192444 127.84949219 165.04384888 128.28710938 166.09674072 C129.55992642 169.16314296 130.82757671 172.23163061 132.09375 175.30078125 C132.48639038 176.2453569 132.87903076 177.18993256 133.28356934 178.16313171 C133.6405188 179.03138077 133.99746826 179.89962982 134.36523438 180.79418945 C134.84011292 181.94320488 134.84011292 181.94320488 135.32458496 183.11543274 C136 185 136 185 136 187 C128.77844126 187.2803305 121.55829704 187.47211021 114.33251953 187.60424805 C111.87821027 187.6593593 109.4242588 187.73427483 106.97119141 187.82983398 C85.43306966 188.64746061 85.43306966 188.64746061 80.22973633 184.64526367 C77.71092156 181.87827393 75.86075698 179.23296229 74 176 C72.84377191 174.61903649 71.66198445 173.25831847 70.4375 171.9375 C69.88578125 171.30457031 69.3340625 170.67164063 68.765625 170.01953125 C47.79791678 145.33245212 47.79791678 145.33245212 19 132 C16.71130596 131.85661194 14.41799044 131.77958697 12.125 131.75 C10.93132812 131.72421875 9.73765625 131.6984375 8.5078125 131.671875 C2.03209834 132.27762109 -1.46688367 135.05127256 -5.48562622 139.85836792 C-8.24143079 143.75563526 -9.82663147 148.09132068 -11.5234375 152.52734375 C-11.87124268 153.40491333 -12.21904785 154.28248291 -12.57739258 155.18664551 C-13.85851448 158.43094864 -15.11537597 161.68478983 -16.375 164.9375 C-20.644375 175.8584375 -20.644375 175.8584375 -25 187 C-42.16 187 -59.32 187 -77 187 C-75.12739418 181.38218255 -73.24725501 175.90084111 -71.0234375 170.43359375 C-70.6001844 169.38500435 -70.6001844 169.38500435 -70.16838074 168.31523132 C-69.24067497 166.02125055 -68.30819914 163.72925108 -67.375 161.4375 C-67.04942108 160.63544128 -66.72384216 159.83338257 -66.38839722 159.00701904 C-60.89385963 145.47916759 -55.22355774 132.03037782 -49.48519897 118.60446167 C-44.28808925 106.44191461 -39.18716679 94.24502262 -34.1875 82 C-27.97534086 66.78784438 -21.69608542 51.60473631 -15.375 36.4375 C-14.94907562 35.41470947 -14.52315125 34.39191895 -14.08432007 33.33813477 C-12.8565887 30.39041324 -11.62773936 27.44316063 -10.3984375 24.49609375 C-9.86490913 23.21538246 -9.86490913 23.21538246 -9.32060242 21.90879822 C-6.26178393 14.58416849 -3.12728099 7.29698898 0 0 Z M29 47 C22.97721342 61.54568877 16.99339599 76.06195038 12 91 C13.06476563 91.44988281 14.12953125 91.89976563 15.2265625 92.36328125 C33.07271873 100.1690366 46.07740364 111.52834921 58.1171875 126.77734375 C59.8066507 129.06724726 59.8066507 129.06724726 62 130 C59.91004138 122.51557801 57.28374561 115.34228213 54.39453125 108.1328125 C53.95163254 107.01800507 53.50873383 105.90319763 53.05241394 104.75460815 C51.6430316 101.20982942 50.22786146 97.66739501 48.8125 94.125 C47.88178054 91.78660991 46.95143894 89.44806939 46.02148438 87.109375 C43.35359581 80.40387323 40.678309 73.70134563 38 67 C37.58667419 65.96580933 37.17334839 64.93161865 36.74749756 63.86608887 C34.4999103 58.24342683 32.25072826 52.62140541 30 47 C29.67 47 29.34 47 29 47 Z " fill="#008389" transform="translate(530,1031)"/>
<path d="M0 0 C12.1833078 9.87835768 19.18383345 22.24206377 21.3125 37.875 C21.44662296 40.82614066 21.43912551 43.77232746 21.42602539 46.72607422 C21.42617142 47.59501816 21.42631744 48.4639621 21.4264679 49.35923767 C21.42577421 52.21608015 21.41800735 55.07285649 21.41015625 57.9296875 C21.40829014 59.91651372 21.40686715 61.90334039 21.40586853 63.89016724 C21.40205857 69.10812663 21.3922413 74.32605799 21.38116455 79.54400635 C21.36911468 85.81077495 21.36454094 92.07755295 21.35871124 98.34432983 C21.34902872 107.85457269 21.3298615 117.3647541 21.3125 126.875 C4.8125 126.875 -11.6875 126.875 -28.6875 126.875 C-28.72488281 120.92726563 -28.76226563 114.97953125 -28.80078125 108.8515625 C-28.83108036 105.06898221 -28.86224093 101.28644787 -28.89648438 97.50390625 C-28.95067816 91.5086507 -29.00179313 85.51348603 -29.03393555 79.51806641 C-29.0600688 74.68089826 -29.10054133 69.84403771 -29.15068626 65.007061 C-29.16728746 63.16766582 -29.17884354 61.3282175 -29.18511391 59.48875809 C-29.23501823 46.18691716 -29.59226725 34.46748237 -38.6875 23.875 C-42.87542494 20.73405629 -46.91695649 20.29528402 -52.03125 20.45703125 C-61.84129424 22.00067056 -69.09419129 28.67223973 -75.0625 36.125 C-87.60729489 53.42161114 -93.59215241 74.29836261 -94.00390625 95.52734375 C-94.02255737 96.32628052 -94.0412085 97.12521729 -94.0604248 97.94836426 C-94.12818403 100.90297496 -94.18867433 103.85774877 -94.25 106.8125 C-94.394375 113.433125 -94.53875 120.05375 -94.6875 126.875 C-111.1875 126.875 -127.6875 126.875 -144.6875 126.875 C-144.6875 81.665 -144.6875 36.455 -144.6875 -10.125 C-128.1875 -10.125 -111.6875 -10.125 -94.6875 -10.125 C-94.3575 1.095 -94.0275 12.315 -93.6875 23.875 C-91.7075 19.915 -89.7275 15.955 -87.6875 11.875 C-79.10383239 -0.3458149 -67.46891656 -9.02816629 -52.75 -12.4375 C-34.39345168 -15.43448748 -14.9402129 -11.10938908 0 0 Z " fill="#F3F8F0" transform="translate(1258.6875,1091.125)"/>
<path d="M0 0 C12.81470555 10.92017267 22.4937073 25.0949564 24.625 42.125 C25.749727 61.64310137 22.71125563 78.69739352 9.79589844 93.98950195 C-3.4900875 108.76311716 -21.26361216 116.97307186 -40.375 121.125 C-41.34953125 121.35058594 -42.3240625 121.57617188 -43.328125 121.80859375 C-69.93576488 126.96649186 -102.34540721 123.16241503 -125.375 108.125 C-140.57786308 97.72439266 -151.83434155 84.00757414 -155.88964844 65.81640625 C-158.95223509 48.83353139 -156.49780263 31.5714842 -147.3515625 16.9375 C-133.70907267 -2.47473849 -113.29712773 -13.66666767 -90.29296875 -17.84375 C-59.24979141 -22.97959075 -25.66650171 -19.60635547 0 0 Z M-95.375 21.6875 C-96.035 22.491875 -96.695 23.29625 -97.375 24.125 C-98.055625 24.8675 -98.73625 25.61 -99.4375 26.375 C-106.6491849 36.61093986 -107.3562057 47.97778302 -106.375 60.125 C-104.48181001 70.89109246 -99.94295588 79.11663359 -91 85.5 C-79.8863649 92.34645439 -66.89575425 93.77390738 -54.25 91 C-44.6924923 88.31390307 -37.00707664 83.3783889 -31.375 75.125 C-25.19572109 63.68956616 -24.61733791 50.24475532 -27.05859375 37.578125 C-30.19409782 28.36676865 -35.9671793 21.04415898 -44.375 16.125 C-60.94106197 8.02316032 -81.17405903 9.55752959 -95.375 21.6875 Z " fill="#008389" transform="translate(1772.375,1097.875)"/>
<path d="M0 0 C2.51696932 2.19219909 4.88263809 4.46813684 7.23046875 6.83984375 C8.01164062 7.5875 8.7928125 8.33515625 9.59765625 9.10546875 C17.06098884 16.69444667 22.30730298 26.31972259 24.23046875 36.83984375 C17.07792122 37.09372516 9.92653646 37.2686396 2.77050781 37.38916016 C0.33744903 37.43940318 -2.09530849 37.50761337 -4.52734375 37.59423828 C-8.02809847 37.71579226 -11.52486175 37.77229597 -15.02734375 37.81640625 C-16.11193878 37.8680191 -17.19653381 37.91963196 -18.31399536 37.97280884 C-21.43319172 37.97511723 -23.82315924 37.87425959 -26.76953125 36.83984375 C-28.89797142 34.48164432 -30.20275063 32.23155526 -31.55856323 29.36532593 C-34.92398456 22.34671646 -40.89392405 18.72810427 -47.890625 15.84375 C-59.84948855 11.67356285 -72.52137768 11.78966409 -84.3046875 16.6171875 C-92.88489316 20.87329585 -99.35562821 27.28155054 -102.58203125 36.40234375 C-106.08504614 48.45683616 -105.98961171 62.0416154 -100.48046875 73.52734375 C-94.72095632 82.64400514 -86.53503296 88.66707216 -76.01953125 91.08984375 C-62.4152503 93.39882721 -49.72002125 91.7171943 -38.18359375 83.87109375 C-33.56867809 79.98799319 -30.86598428 75.17576542 -28.33203125 69.77734375 C-27.81640625 69.13796875 -27.30078125 68.49859375 -26.76953125 67.83984375 C-24.43751855 67.76135038 -22.10138812 67.75684999 -19.76953125 67.83984375 C-19.40154419 68.60893066 -19.40154419 68.60893066 -19.02612305 69.39355469 C-14.05600141 79.64364161 -9.10601157 88.50336343 -1.01953125 96.58984375 C1.23046875 98.83984375 1.23046875 98.83984375 3.23046875 101.83984375 C-20.25812238 121.45815566 -50.55898783 126.12829963 -80.41699219 123.6171875 C-100.78912649 121.30013258 -120.66162909 113.9654984 -135.76953125 99.83984375 C-136.56101562 99.1025 -137.3525 98.36515625 -138.16796875 97.60546875 C-150.80478284 84.75300937 -156.30055891 67.78894641 -156.19189453 50.05737305 C-155.63503259 31.75190161 -147.68733256 16.18496851 -134.4609375 3.65234375 C-99.17871486 -26.01021453 -36.76500606 -28.67566763 0 0 Z " fill="#F2F7EF" transform="translate(1442.76953125,1097.16015625)"/>
<path d="M0 0 C16.5 0 33 0 50 0 C50 45.21 50 90.42 50 137 C33.5 137 17 137 0 137 C0 91.79 0 46.58 0 0 Z " fill="#008389" transform="translate(679,1081)"/>
<path d="M0 0 C5.15471869 4.31825319 7.64204414 9.04570641 8.25 15.76171875 C8.51685909 22.40817784 8.0456023 27.58065735 4 33 C-2.21055543 39.49941848 -8.80666165 41.08635048 -17.50195312 41.40478516 C-26.21911563 41.52496003 -34.98030871 41.29677429 -41.92578125 35.3515625 C-47.54160639 29.21302333 -48.46018778 23.39944903 -48.3125 15.23046875 C-47.72067242 9.11245117 -45.49671974 5.56633461 -41.3125 1.1875 C-30.02258195 -6.26810626 -11.77207788 -7.1049178 0 0 Z " fill="#008389" transform="translate(724,1033)"/>
</svg>
