<?xml version="1.0" encoding="UTF-8"?>
<svg version="1.1" xmlns="http://www.w3.org/2000/svg" width="4501" height="4500">
<path d="M0 0 C1485.33 0 2970.66 0 4501 0 C4501 1485 4501 2970 4501 4500 C3015.67 4500 1530.34 4500 0 4500 C0 3015 0 1530 0 0 Z " fill="#008489" transform="translate(0,0)"/>
<path d="M0 0 C0.91104492 0.13921875 1.82208984 0.2784375 2.76074219 0.421875 C16.26722636 2.55681871 29.25425407 6.16053851 42.3112793 10.17773438 C44.84764702 10.95340735 47.39147852 11.69819094 49.9375 12.44140625 C70.9953314 18.76644632 91.12417682 27.69500569 111 37 C112.19906982 37.56001709 112.19906982 37.56001709 113.42236328 38.13134766 C152.12332981 56.38789086 188.23904726 80.56330166 221 108 C221.50450684 108.41958984 222.00901367 108.83917969 222.52880859 109.27148438 C229.98690767 115.47713013 237.25551203 121.85633351 244.35644531 128.46972656 C246.16938224 130.15770765 247.98705621 131.84051298 249.8046875 133.5234375 C258.95593552 142.01163374 267.86633676 150.5168052 276 160 C277.31104343 161.50127326 278.62350626 163.00130834 279.9375 164.5 C280.95833333 165.66666667 281.97916667 166.83333333 283 168 C279.8619647 170.58164606 276.71499184 172.88127888 273.25 175 C254.41792292 186.88063923 237.04847114 200.5786264 221 216 C220.51160645 216.46647949 220.02321289 216.93295898 219.52001953 217.41357422 C213.64186376 223.0547872 208.23356779 228.90406313 203.1640625 235.28125 C201.769863 237.03280749 200.34957575 238.76406714 198.8984375 240.46875 C187.82085603 253.52015508 178.40318446 268.10467166 170 283 C169.4438501 283.98468262 169.4438501 283.98468262 168.87646484 284.98925781 C150.26773711 318.27406353 138.50568675 356.00572625 138.73925781 394.35180664 C138.7499789 396.43340268 138.73928035 398.51413283 138.7265625 400.59570312 C138.66954262 454.14405313 163.53812025 506.54929045 200 545 C201.10995024 546.30761261 202.21446892 547.61986271 203.3125 548.9375 C236.83809137 587.20801266 287.66955222 609.35945072 337.6875 613.625 C353.60244022 614.60961385 369.19205525 613.99699322 385 612 C385.77134277 611.90879883 386.54268555 611.81759766 387.33740234 611.72363281 C438.68484572 605.5082914 487.14755711 577.71361151 519.59326172 537.53369141 C521.35644389 535.27607529 523.07643653 532.99063109 524.76904297 530.6796875 C525.99785707 529.0029241 527.24944508 527.34512847 528.50390625 525.6875 C534.98197722 517.00369772 540.43409132 507.79311477 545.69921875 498.33447266 C546.52572976 496.85115842 547.35837751 495.37123424 548.19921875 493.89599609 C566.70555255 461.40727442 578.13366745 423.67999874 579.26953125 386.26953125 C579.29009079 385.59451569 579.31065033 384.91950012 579.33183289 384.22402954 C579.43082739 380.83405282 579.51276248 377.44463272 579.57104492 374.05371094 C579.61322144 372.18827637 579.61322144 372.18827637 579.65625 370.28515625 C579.67494141 369.17019775 579.69363281 368.05523926 579.71289062 366.90649414 C580.17242719 362.25446798 580.17242719 362.25446798 582 360 C586.99940571 358.28736298 590.53163224 359.5950411 595.13671875 361.68359375 C596.15509575 362.12337303 596.15509575 362.12337303 597.19404602 362.57203674 C599.36496775 363.51317218 601.52615073 364.47461369 603.6875 365.4375 C605.08857693 366.05023808 606.49026637 366.66157761 607.89257812 367.27148438 C610.03523113 368.2043341 612.17707274 369.1388277 614.31651306 370.07902527 C620.35658951 372.73320374 626.42983291 375.30287617 632.51370239 377.85476685 C638.75794332 380.47455069 644.99247774 383.11648259 651.22265625 385.76953125 C652.18072174 386.17748428 653.13878723 386.58543732 654.12588501 387.00575256 C656.0955965 387.84464916 658.06526147 388.683655 660.03488159 389.52276611 C665.21288063 391.72853974 670.39159155 393.93264066 675.5703125 396.13671875 C677.07920296 396.77891357 677.07920296 396.77891357 678.61857605 397.43408203 C689.15422945 401.91759399 699.69208669 406.39569877 710.24462891 410.83935547 C712.07554823 411.61059333 713.90595609 412.38304658 715.73583984 413.15673828 C767.58161944 435.06275617 820.12007009 455.04273729 873.5 472.875 C874.1841095 473.10392944 874.86821899 473.33285889 875.57305908 473.56872559 C884.34560885 476.50164249 893.14625394 479.32024439 902 482 C902.8038916 482.24540527 903.6077832 482.49081055 904.43603516 482.74365234 C924.51177391 488.86554063 944.67347255 494.74481147 965.01489258 499.921875 C969.85826817 501.15812926 974.66590792 502.47532489 979.46484375 503.875 C988.31048809 506.41911186 997.24237738 508.58659448 1006.1875 510.75 C1007.08382141 510.96720703 1007.98014282 511.18441406 1008.90362549 511.40820312 C1014.41681159 512.74311148 1019.93198959 514.06952191 1025.4487915 515.3894043 C1027.79742826 515.95151732 1030.14556398 516.51567994 1032.49365234 517.08007812 C1070.50791379 526.19002582 1108.9722466 533.58285738 1147.590271 539.6217041 C1150.16707786 540.02622904 1152.74300407 540.4360673 1155.31884766 540.84667969 C1181.90077094 545.07590616 1208.50152162 548.76865531 1235.25817871 551.69854736 C1238.05439391 552.0059804 1240.84997725 552.31873111 1243.64550781 552.63232422 C1339.38173535 563.32009018 1437.61885252 567.39291598 1533.87695312 561.31640625 C1538.48467725 561.02615591 1543.09394102 560.77711312 1547.70440674 560.53479004 C1600.87171217 557.73093037 1654.6339075 553.3762072 1707.0703125 543.859375 C1710.86849192 543.17367419 1714.67364898 542.60831527 1718.49609375 542.07421875 C1765.01656869 535.5275874 1811.35459527 526.06676772 1857 515 C1857.79946045 514.80664062 1858.5989209 514.61328125 1859.42260742 514.4140625 C1878.20004261 509.86678426 1896.9168589 505.21196179 1915.421875 499.64453125 C1921.61941655 497.78947726 1927.8701118 496.14905758 1934.125 494.5 C1943.62239841 491.9899631 1952.99354079 489.20395174 1962.32470703 486.1328125 C1963.17661621 485.85308594 1964.02852539 485.57335938 1964.90625 485.28515625 C1966.02483398 484.91209351 1966.02483398 484.91209351 1967.16601562 484.53149414 C1969 484 1969 484 1971 484 C1971 1214.95 1971 1945.9 1971 2699 C485.67 2699 -999.66 2699 -2530 2699 C-2530 1914.92 -2530 1130.84 -2530 323 C-2469.73714479 323 -2469.73714479 323 -2450.75 323.875 C-2448.57098299 323.96806717 -2446.39194593 324.06066594 -2444.21289062 324.15283203 C-2438.1408915 324.41492418 -2432.07032079 324.70177418 -2426 325 C-2425.20070068 325.03867188 -2424.40140137 325.07734375 -2423.57788086 325.1171875 C-2398.99310009 326.31553173 -2374.49229909 328.60336056 -2350 331 C-2349.24835571 331.07285217 -2348.49671143 331.14570435 -2347.72229004 331.22076416 C-2326.03478809 333.32777322 -2304.44784413 336.21529849 -2282.85865021 339.14322281 C-2280.73461938 339.43111345 -2278.61045179 339.71797745 -2276.48626709 340.00473022 C-2252.54317871 343.24288648 -2228.59610649 346.65879378 -2204.87280273 351.26708984 C-2201.05066908 351.99041111 -2197.22238313 352.65269929 -2193.38743591 353.30354309 C-2180.18316025 355.5511951 -2167.0566088 358.11586099 -2153.9375 360.8125 C-2152.87183807 361.03065369 -2151.80617615 361.24880737 -2150.70822144 361.47357178 C-2134.61587388 364.77212543 -2118.5967852 368.27116698 -2102.62890625 372.13037109 C-2098.66302196 373.08075321 -2094.69180859 374.00596955 -2090.71875 374.92578125 C-2064.58877339 380.98422023 -2038.61364464 387.45955464 -2012.90478516 395.13671875 C-2008.87834823 396.33334684 -2004.84433045 397.50333666 -2000.81030273 398.67407227 C-1984.62220536 403.37359252 -1968.45857254 408.15535988 -1952.38818359 413.24462891 C-1950.60521393 413.80857372 -1948.82157591 414.37040625 -1947.03759766 414.93115234 C-1943.73208663 415.97082507 -1940.42840833 417.0161672 -1937.125 418.0625 C-1935.55552612 418.55532471 -1935.55552612 418.55532471 -1933.9543457 419.05810547 C-1928.4149206 420.82018951 -1923.01463574 422.74787127 -1917.63720703 424.95239258 C-1912.28123157 427.08000698 -1906.8146067 428.91181665 -1901.375 430.8125 C-1869.5711377 442.01507048 -1838.17503294 454.12574832 -1807.06793213 467.13598633 C-1805.1652672 467.93094883 -1803.26116724 468.72247441 -1801.35693359 469.51367188 C-1783.96631548 476.73947754 -1766.76155759 484.37745161 -1749.57177734 492.0657196 C-1745.76364684 493.76858403 -1741.95279697 495.46496709 -1738.13745117 497.15161133 C-1737.33267334 497.5077803 -1736.52789551 497.86394928 -1735.69873047 498.23091125 C-1734.16549566 498.90912055 -1732.63175791 499.5861945 -1731.09741211 500.2618866 C-1725.60858764 502.69138763 -1720.24653493 505.32917673 -1714.89550781 508.04980469 C-1710.13212081 510.4558188 -1705.30455231 512.72622348 -1700.484375 515.015625 C-1689.54093174 520.233327 -1678.66350548 525.57513646 -1667.82006836 530.99731445 C-1664.93623917 532.43812994 -1662.04924768 533.87246987 -1659.16210938 535.30664062 C-1646.74649895 541.49605701 -1634.53426153 547.99797953 -1622.38467407 554.69277954 C-1618.05675111 557.06524189 -1613.69208186 559.36696016 -1609.33032227 561.67651367 C-1597.27300942 568.06563131 -1585.41013826 574.73030795 -1573.66015625 581.671875 C-1569.16281135 584.32845686 -1564.63203514 586.91792441 -1560.08129883 589.48168945 C-1548.63861948 595.93517446 -1537.49104015 602.81881366 -1526.39672852 609.85180664 C-1523.86091374 611.45860139 -1521.31817723 613.05401043 -1518.77319336 614.64624023 C-1507.56098795 621.67352725 -1496.49914721 628.9062541 -1485.5012207 636.26391602 C-1482.80532841 638.06729734 -1480.10696049 639.86692541 -1477.40820312 641.66601562 C-1464.04373666 650.58459415 -1450.73812944 659.58950553 -1437.625 668.875 C-1436.93204834 669.36492432 -1436.23909668 669.85484863 -1435.52514648 670.35961914 C-1428.82669002 675.1053918 -1422.17024753 679.90882198 -1415.5234375 684.7265625 C-1412.55633553 686.87691382 -1409.58249496 689.01730316 -1406.6015625 691.1484375 C-1397.57934518 697.60888948 -1388.70079135 704.23185103 -1379.89404297 710.9831543 C-1374.08241796 715.43282974 -1368.2206851 719.8045521 -1362.3125 724.125 C-1354.56231519 729.79962987 -1346.96147254 735.64549302 -1339.3984375 741.56640625 C-1335.12430494 744.91117444 -1330.81680115 748.21058054 -1326.5 751.5 C-1318.38362212 757.69044177 -1310.32456401 763.95266236 -1302.27490234 770.22949219 C-1299.99521649 772.0037229 -1297.71118455 773.77220428 -1295.42578125 775.5390625 C-1282.59307653 785.46785609 -1269.93777628 795.58913747 -1257.58740234 806.11352539 C-1254.19956994 808.99841858 -1250.77094806 811.82530395 -1247.3125 814.625 C-1242.91273503 818.20339061 -1238.70418568 821.94830818 -1234.51171875 825.765625 C-1231.11677838 828.78569637 -1227.58703654 831.62356889 -1224.0546875 834.48046875 C-1220.45959879 837.44572734 -1216.94782901 840.49787135 -1213.4375 843.5625 C-1207.73799671 848.52841793 -1201.95483346 853.34127184 -1196 858 C-1194.94616437 858.83536986 -1193.89280993 859.67134698 -1192.83984375 860.5078125 C-1189.243097 863.35992431 -1185.62387877 866.18248919 -1182 869 C-1181.13157471 869.6798999 -1181.13157471 869.6798999 -1180.24560547 870.37353516 C-1171.7540808 876.99754059 -1162.96739244 883.16878371 -1154.03231812 889.17648315 C-1152.86359366 889.96238997 -1151.69624386 890.75034577 -1150.53042603 891.54055786 C-1138.99924452 899.34000186 -1127.50614627 905.14481655 -1114.3125 909.5625 C-1113.17184082 909.95034668 -1112.03118164 910.33819336 -1110.85595703 910.73779297 C-1102.7184169 913.48175355 -1094.54665418 916.02879371 -1086.28076172 918.35351562 C-1081.65767579 919.66393433 -1077.04931326 921.02556031 -1072.4375 922.375 C-1066.19040842 924.19827095 -1059.94218715 926.01754061 -1053.69140625 927.828125 C-1039.30767219 931.99848339 -1024.96679843 936.22292749 -1010.8125 941.125 C-1010.10488525 941.36677979 -1009.39727051 941.60855957 -1008.66821289 941.85766602 C-1001.24747582 944.47090423 -1001.24747582 944.47090423 -998 947 C-996.71500825 949.77804224 -995.7409923 952.30889924 -994.8359375 955.20703125 C-994.5622081 956.03152267 -994.2884787 956.8560141 -994.00645447 957.70549011 C-993.41955983 959.47910036 -992.84065321 961.25536992 -992.26895142 963.03393555 C-991.06280573 966.78285686 -989.81569738 970.51771569 -988.57069397 974.25387573 C-987.94188772 976.14215887 -987.31505173 978.03109923 -986.69017029 979.92068481 C-973.8984952 1018.57980994 -957.47868794 1055.78035354 -937 1091 C-936.51354004 1091.83869629 -936.02708008 1092.67739258 -935.52587891 1093.54150391 C-912.34161393 1133.39419468 -886.90434608 1172.03588406 -858 1208 C-857.4858252 1208.6403418 -856.97165039 1209.28068359 -856.44189453 1209.94042969 C-849.54040139 1218.51909554 -842.53959185 1227.00664201 -835.38574219 1235.37597656 C-833.94270908 1237.06714221 -832.50625183 1238.76374619 -831.0703125 1240.4609375 C-825.13238352 1247.45914183 -819.04598137 1254.2855114 -812.78515625 1260.99609375 C-810.39374075 1263.56207692 -808.06699528 1266.17895129 -805.75 1268.8125 C-800.91802274 1274.22289075 -795.75561431 1279.29813108 -790.58300781 1284.38012695 C-787.90820696 1287.02079386 -785.33150721 1289.5743369 -783.01953125 1292.54296875 C-780.64643951 1295.43015387 -777.97463612 1297.69253354 -775.140625 1300.1171875 C-770.87774821 1303.86665212 -766.97328607 1307.98817318 -763 1312.0390625 C-759.09796577 1315.9868237 -755.0990415 1319.73431989 -750.89306641 1323.35644531 C-748.08960704 1325.79040049 -745.39491876 1328.33546 -742.6875 1330.875 C-737.91589105 1335.31465293 -733.0183201 1339.51659141 -727.93359375 1343.59765625 C-724.45096296 1346.44961089 -721.07227552 1349.40830062 -717.6875 1352.375 C-711.19869349 1358.04171015 -704.52480477 1363.41065484 -697.70751953 1368.67480469 C-696.03461985 1369.97313175 -694.37293468 1371.28439208 -692.71484375 1372.6015625 C-677.94586224 1384.32667171 -662.83065413 1395.58860378 -647.35205078 1406.35888672 C-644.72727929 1408.19028738 -642.11169182 1410.03442991 -639.49609375 1411.87890625 C-628.31507767 1419.74136448 -617.0283577 1427.33827078 -605.39648438 1434.51708984 C-602.88760147 1436.0695506 -600.38859596 1437.63708007 -597.890625 1439.20703125 C-572.65083169 1455.02541084 -546.61951166 1469.23425646 -519.60253906 1481.7878418 C-517.7671351 1482.64269927 -515.93613811 1483.50705001 -514.10839844 1484.37817383 C-505.05871329 1488.64693317 -495.82903841 1492.33571856 -486.5 1495.9375 C-485.70697479 1496.24469971 -484.91394958 1496.55189941 -484.09689331 1496.8684082 C-471.84387997 1501.60858565 -459.56915788 1506.15920536 -447 1510 C-446.20867676 1510.24621094 -445.41735352 1510.49242188 -444.60205078 1510.74609375 C-428.30728046 1515.77691266 -411.67145311 1519.45871668 -395 1523 C-394.2435318 1523.16275421 -393.4870636 1523.32550842 -392.70767212 1523.49319458 C-380.82832576 1526.03422234 -368.97320306 1527.97171081 -356.90795898 1529.38305664 C-354.30127602 1529.68881656 -351.69658244 1530.00859294 -349.09179688 1530.33007812 C-347.36989066 1530.53728261 -345.64788831 1530.74369018 -343.92578125 1530.94921875 C-343.17943924 1531.04087814 -342.43309723 1531.13253754 -341.66413879 1531.22697449 C-328.21125297 1532.7792409 -314.6835825 1533.16577348 -301.15234375 1533.203125 C-300.43559542 1533.20595238 -299.71884708 1533.20877975 -298.9803791 1533.21169281 C-295.17628772 1533.22651994 -291.37223253 1533.23584899 -287.56811523 1533.24023438 C-284.50777022 1533.24458294 -281.44771287 1533.25835753 -278.38745117 1533.28125 C-248.2084157 1533.50216117 -218.77942508 1531.19154799 -189 1526 C-187.96278809 1525.82243164 -186.92557617 1525.64486328 -185.85693359 1525.46191406 C-146.88479389 1518.70039547 -109.11559542 1507.12282489 -73 1491 C-71.89108398 1490.50918945 -70.78216797 1490.01837891 -69.63964844 1489.51269531 C-54.12916728 1482.61102571 -39.16323881 1475.09851652 -24.53222656 1466.48730469 C-22.17397769 1465.10218589 -19.80482999 1463.73869682 -17.4296875 1462.3828125 C6.82733945 1448.45758412 29.52852795 1431.88791621 51 1414 C51.51030762 1413.57605957 52.02061523 1413.15211914 52.54638672 1412.71533203 C60.07028798 1406.45418343 67.37594963 1400.001256 74.546875 1393.33984375 C75.93686077 1392.05821709 77.34308836 1390.79427295 78.75 1389.53125 C85.29192748 1383.64351526 91.57911401 1377.52612408 97.8125 1371.3125 C98.61308838 1370.51650391 99.41367676 1369.72050781 100.23852539 1368.90039062 C104.46330946 1364.66460337 108.5276252 1360.35061507 112.42944336 1355.81567383 C114.68162072 1353.21199856 117.02854965 1350.70658708 119.375 1348.1875 C124.48918861 1342.64362133 129.30484635 1336.90475255 134 1331 C134.42249023 1330.47180664 134.84498047 1329.94361328 135.28027344 1329.39941406 C160.16383813 1298.2631494 181.79938366 1264.49212415 198 1228 C198.30824707 1227.31566895 198.61649414 1226.63133789 198.93408203 1225.92626953 C209.59676734 1202.11569423 217.76934618 1177.30894278 224 1152 C224.37845822 1150.53894637 224.75731884 1149.07799688 225.13671875 1147.6171875 C242.73440778 1077.1672937 237.8466679 1000.05181936 221 930 C220.76764648 929.00967773 220.53529297 928.01935547 220.29589844 926.99902344 C209.48192766 881.30679118 191.51264621 838.09793563 171 796 C170.5369043 795.04512695 170.07380859 794.09025391 169.59667969 793.10644531 C162.61559698 778.74665514 155.03803599 764.79494127 147 751 C146.50918945 750.15759766 146.01837891 749.31519531 145.51269531 748.44726562 C132.34779937 725.96800525 118.05698282 704.25114931 103 683 C102.08849852 681.70706167 101.1770351 680.4140965 100.265625 679.12109375 C89.89414414 664.46082616 79.22156759 650.02097784 68 636 C67.51821289 635.39736328 67.03642578 634.79472656 66.54003906 634.17382812 C64.5211425 631.64922227 62.50186852 629.12494101 60.4777832 626.60449219 C58.04785541 623.57580697 55.63221113 620.53819354 53.25390625 617.46875 C47.92934503 610.60043244 42.43156121 603.94289596 36.7043457 597.40551758 C33.47932646 593.72177754 30.32873372 589.99568979 27.25 586.1875 C23.72097435 581.82773656 20.02030415 577.66760006 16.2421875 573.5234375 C13.95484096 570.94917642 11.78451729 568.30710511 9.625 565.625 C5.46437925 560.48241457 1.05643696 555.62548263 -3.4375 550.77734375 C-6.09866345 547.89306447 -8.68699008 544.95662867 -11.2578125 541.9921875 C-13.31500399 539.63979365 -15.40596915 537.31965034 -17.5 535 C-20.18983431 532.01937279 -22.86310364 529.02754767 -25.5 526 C-29.61082427 521.28297123 -33.8074226 516.64430291 -38 512 C-40.24796977 509.50312008 -42.49508007 507.00546849 -44.7421875 504.5078125 C-46.26708244 502.81407106 -47.79315402 501.12138831 -49.3203125 499.4296875 C-54.87225646 493.27549877 -60.37295293 487.08517369 -65.75 480.77734375 C-70.49079323 475.21877521 -75.24086217 469.69062026 -80.1875 464.3125 C-84.21393836 459.92644354 -87.98109722 455.38258372 -91.71875 450.75 C-94.06718968 447.91900422 -96.50909902 445.20616402 -99 442.5 C-103.01605847 438.13230508 -106.79385454 433.63150764 -110.51953125 429.015625 C-113.44968595 425.45329519 -116.46769057 421.97534874 -119.5 418.5 C-124.018082 413.31736044 -128.43927195 408.07525163 -132.765625 402.73046875 C-135.26158819 399.68033192 -137.8154731 396.68421595 -140.375 393.6875 C-144.67946221 388.63783247 -148.80348046 383.47003269 -152.87451172 378.23120117 C-155.99106746 374.23787211 -159.20542808 370.34737208 -162.5 366.5 C-167.72625592 360.3894007 -172.69703132 354.10179337 -177.62939453 347.75292969 C-178.97954274 346.02616373 -180.34429085 344.31216255 -181.71484375 342.6015625 C-217.5029329 297.84876603 -251.63870024 238.17768829 -251.3125 179.3125 C-251.31034485 178.61001129 -251.3081897 177.90752258 -251.30596924 177.18374634 C-251.25215559 166.22986889 -250.77481648 155.64182336 -248 145 C-247.80664062 144.25073242 -247.61328125 143.50146484 -247.4140625 142.72949219 C-238.415316 109.13694931 -217.70161572 78.20349407 -191 56 C-190.11570312 55.21625 -189.23140625 54.4325 -188.3203125 53.625 C-174.22085976 41.2005927 -158.63573616 30.7062758 -142 22 C-141.3723877 21.66307129 -140.74477539 21.32614258 -140.09814453 20.97900391 C-96.5960329 -2.33723672 -48.28463881 -7.52066882 0 0 Z " fill="#008489" transform="translate(2530,1801)"/>
<path d="M0 0 C1.10585449 0.13921875 2.21170898 0.2784375 3.35107422 0.421875 C27.81165626 3.60805665 52.48918389 8.48649051 76 16 C78.1283133 16.63332501 80.26026 17.2530837 82.39306641 17.87109375 C88.82008001 19.73424782 95.22989601 21.65520319 101.625 23.625 C103.50058594 24.20121094 103.50058594 24.20121094 105.4140625 24.7890625 C109.0416642 26.01406961 112.49056601 27.47227114 116 29 C118.30791444 29.86648016 120.62078595 30.71982985 122.9375 31.5625 C130.04615736 34.1934652 137.06211708 37.03164948 144.0625 39.9375 C145.01825928 40.33203369 145.97401855 40.72656738 146.95874023 41.13305664 C160.12071856 46.63121086 172.93845464 52.86337242 185.6875 59.25 C186.66186508 59.73788498 186.66186508 59.73788498 187.65591431 60.23562622 C214.9618258 73.93088085 241.39205368 89.34454755 267 106 C267.94472168 106.61343262 268.88944336 107.22686523 269.86279297 107.85888672 C282.37411877 116.01285439 294.51905163 124.4422697 306.26757812 133.66015625 C308.65345667 135.50537912 311.1034563 137.25393346 313.5625 139 C320.32285017 143.86704054 326.71561483 149.19136469 333.14746094 154.47949219 C334.75242972 155.79680183 336.36391357 157.10616613 337.9765625 158.4140625 C350.0913278 168.24167447 361.73414877 178.48163857 373.07373047 189.19140625 C375.04951968 191.04649453 377.03995472 192.88456811 379.03515625 194.71875 C390.80280496 205.55400901 390.80280496 205.55400901 395.4140625 211.1015625 C397.288458 213.34529701 399.26785482 215.47593733 401.25 217.625 C405.79203345 222.65889494 409.95549767 227.93643935 414.109375 233.2890625 C417.05201073 237.08076707 420.05407758 240.822924 423.0625 244.5625 C426.7443636 249.14630847 430.37117238 253.7631871 433.9375 258.4375 C442.37096746 269.46351578 451.05236371 280.23254553 460.5625 290.3515625 C462.30823463 292.24837032 463.96049821 294.14203954 465.58984375 296.1328125 C468.74073537 299.88119896 472.26619819 302.85213704 476 306 C476.86496094 306.76441406 477.72992187 307.52882813 478.62109375 308.31640625 C484.09140964 313.059326 489.69387914 317.31022815 495.8125 321.1875 C496.40289063 321.56688721 496.99328125 321.94627441 497.6015625 322.3371582 C510.79197488 330.46488204 524.92639072 335.13057336 539.6875 339.5 C561.05349673 345.88783234 581.95483759 353.240894 602.8125 361.125 C603.78834045 361.49338989 604.76418091 361.86177979 605.76959229 362.24133301 C621.77677432 368.29461957 637.60003939 374.68016995 653.32421875 381.43066406 C657.17673845 383.07545661 661.03909422 384.69471043 664.90625 386.3046875 C679.9192346 392.55725927 694.85556571 398.95889066 709.72363281 405.55029297 C719.92803198 410.06547346 730.15581344 414.52760808 740.38476562 418.98681641 C743.57986667 420.37984129 746.77368777 421.7757553 749.96679688 423.17333984 C803.30432794 446.5066147 857.15385718 468.73722037 912.69976807 486.27362061 C914.31414279 486.78341639 915.92834501 487.29375863 917.54241943 487.80450439 C948.71929704 497.71724727 948.71929704 497.71724727 980.234375 506.47265625 C984.82192995 507.65705717 989.35966505 508.98678798 993.8984375 510.34375 C1003.82481499 513.29842237 1013.83919499 515.88378123 1023.875 518.4375 C1024.81576385 518.67777924 1025.75652771 518.91805847 1026.72579956 519.1656189 C1041.07288341 522.82539248 1055.44775615 526.22108967 1069.92578125 529.32617188 C1074.22254846 530.26796647 1078.50177303 531.28015419 1082.78295898 532.29003906 C1095.739692 535.34185945 1108.74406786 537.96287854 1121.82910156 540.39990234 C1124.84641632 540.97093404 1127.8571641 541.5676089 1130.8671875 542.17578125 C1150.41603481 546.09776171 1170.10547447 549.12458778 1189.80371094 552.1862793 C1193.16318556 552.70957397 1196.52039441 553.24455016 1199.87597656 553.79223633 C1211.179828 555.63032881 1222.49962878 557.11781867 1233.875 558.4375 C1235.71549656 558.65281687 1237.55599132 558.86814923 1239.39648438 559.08349609 C1244.04835991 559.62597737 1248.70099306 560.16166165 1253.35388184 560.69537354 C1255.85636701 560.98346468 1258.35842352 561.2749859 1260.86035156 561.56787109 C1284.62775267 564.34350999 1308.41982869 566.34498303 1332.30349731 567.82228088 C1334.25678417 567.95101668 1336.20893069 568.09745487 1338.16012573 568.25474548 C1351.81272446 569.2704527 1365.47270541 569.16416079 1379.15625 569.16796875 C1380.51743081 569.16939745 1381.87861145 569.17099454 1383.23979187 569.17275429 C1390.39228735 569.18197442 1397.54476441 569.18609494 1404.69726562 569.18530273 C1410.52281479 569.18477377 1416.3482962 569.19174623 1422.17382812 569.20581055 C1454.4881713 569.28188515 1486.74966429 569.32161824 1519 567 C1519.74797096 566.94668896 1520.49594193 566.89337791 1521.26657867 566.83845139 C1531.72555781 566.08798843 1542.1732815 565.22513905 1552.61938477 564.31445312 C1555.55585421 564.06078505 1558.49305158 563.81617406 1561.43026638 563.57131386 C1591.3406487 561.07117959 1621.11525407 557.74529234 1650.8125 553.375 C1652.8951117 553.07243035 1654.97779433 552.77034856 1657.06054688 552.46875 C1660.99994631 551.89783615 1664.93877931 551.32324838 1668.87719727 550.74560547 C1671.91530056 550.30104903 1674.95399594 549.86391657 1677.99584961 549.44580078 C1686.69099019 548.24600524 1695.31015255 546.7284369 1703.9375 545.125 C1706.86950396 544.58306717 1709.80184366 544.04297766 1712.734375 543.50390625 C1713.45199509 543.37183273 1714.16961517 543.23975922 1714.90898132 543.10368347 C1719.9278675 542.18443743 1724.95546771 541.33315403 1729.99072266 540.50805664 C1742.88496051 538.37769415 1755.55144028 535.42350389 1768.25421143 532.36682129 C1772.5180943 531.34387572 1776.79009522 530.36615102 1781.0703125 529.4140625 C1802.51141755 524.61255667 1823.60727898 518.6745926 1844.730896 512.64730835 C1846.83470777 512.04715299 1848.93899128 511.44868743 1851.04345703 510.85083008 C1857.66757039 508.96543679 1864.28009777 507.04764342 1870.875 505.0625 C1872.01001953 504.7231543 1872.01001953 504.7231543 1873.16796875 504.37695312 C1875.78100219 503.59218776 1878.3909421 502.79788785 1881 502 C1882.11938965 501.65775391 1883.2387793 501.31550781 1884.39208984 500.96289062 C1896.28268093 497.2883095 1908.0768434 493.33468168 1919.875 489.375 C1923.83012954 488.04768101 1927.78595241 486.72245712 1931.7421875 485.3984375 C1932.62470184 485.10149994 1933.50721619 484.80456238 1934.41647339 484.49862671 C1935.68927658 484.07270737 1935.68927658 484.07270737 1936.98779297 483.63818359 C1937.71674774 483.39345306 1938.44570251 483.14872253 1939.19674683 482.89657593 C1943.44573815 481.53760366 1947.7271142 480.28186574 1952 479 C1952 548.96 1952 618.92 1952 691 C1924.50344139 700.16551954 1924.50344139 700.16551954 1914.625 702.6875 C1912.43864356 703.26111488 1910.25244604 703.83533583 1908.06640625 704.41015625 C1907.03273926 704.67973145 1905.99907227 704.94930664 1904.93408203 705.22705078 C1900.79794382 706.31666749 1896.67982539 707.46670131 1892.5625 708.625 C1884.35853313 710.91802851 1876.12929675 713.1038622 1867.88476562 715.24609375 C1864.64478866 716.09283113 1861.4084814 716.95297147 1858.171875 717.8125 C1838.99199658 722.87359497 1819.71686382 727.3549199 1800.31982422 731.50323486 C1798.02648221 731.99432912 1795.73389995 732.48884936 1793.44140625 732.98388672 C1773.10214647 737.3632751 1752.68846743 741.20501637 1732.1875 744.75 C1731.12063965 744.9347287 1730.0537793 745.1194574 1728.95458984 745.30978394 C1712.99800638 748.06260263 1697.0109542 750.58516769 1681 753 C1679.46020025 753.23385492 1677.92040481 753.46773821 1676.38061523 753.70166016 C1627.49727139 761.09171749 1578.2846568 765.82573382 1528.9375 768.6875 C1527.37394775 768.77877167 1527.37394775 768.77877167 1525.77880859 768.87188721 C1495.19894606 770.63373239 1464.68486307 771.20710456 1434.0625 771.1875 C1432.6573646 771.18709969 1432.6573646 771.18709969 1431.22384262 771.18669128 C1360.23051614 771.16139151 1289.572531 768.00053555 1219 760 C1217.9265332 759.87884827 1216.85306641 759.75769653 1215.74707031 759.63287354 C1207.97489678 758.75383022 1200.20555969 757.8521329 1192.4375 756.9375 C1190.9196138 756.76060638 1190.9196138 756.76060638 1189.37106323 756.58013916 C1176.38333067 755.05764963 1163.50610199 753.15492269 1150.61743164 750.94799805 C1145.68087364 750.10546163 1140.73785657 749.3354798 1135.78125 748.62109375 C1135.08254288 748.52028 1134.38383575 748.41946625 1133.66395569 748.31559753 C1130.91478764 747.92132503 1128.16500477 747.53148838 1125.41503906 747.14282227 C1116.03621918 745.81251646 1106.72379005 744.27585925 1097.42346191 742.46884155 C1094.6737829 741.93689023 1091.92243684 741.41409307 1089.17089844 740.8918457 C1059.96971633 735.33866914 1030.93316359 729.41672772 1002.08251953 722.25585938 C996.70522676 720.92288634 991.31981829 719.62445146 985.93359375 718.328125 C983.17451632 717.66235225 980.41557277 716.99602863 977.65670776 716.32937622 C975.92840818 715.91180888 974.19999995 715.49469086 972.47146606 715.07809448 C961.6052675 712.45423019 950.81320069 709.63401494 940.05877686 706.58383179 C938.13007635 706.03688729 936.2000921 705.4944754 934.27001953 704.95239258 C920.42186139 701.05911399 906.63253576 697.03747648 892.94140625 692.62304688 C886.66309717 690.60817706 880.35631049 688.67971318 874.0234375 686.84375 C862.53183812 683.48971836 851.16722486 679.78680929 839.8125 676 C839.0583078 675.74887451 838.3041156 675.49774902 837.52706909 675.23901367 C820.66242841 669.61677935 803.93372401 663.6806638 787.3125 657.375 C786.51995819 657.07485992 785.72741638 656.77471985 784.91085815 656.46548462 C769.19280884 650.50819902 753.57271047 644.32677534 738 638 C736.99984863 637.59442871 735.99969727 637.18885742 734.96923828 636.77099609 C728.63767794 634.20112115 722.31561444 631.60880283 716 629 C714.74243896 628.48083008 714.74243896 628.48083008 713.45947266 627.95117188 C692.07232127 619.10805503 670.77354074 610.05139915 649.45739746 601.03894043 C647.28969991 600.12247956 645.12192808 599.20619482 642.95410156 598.29003906 C632.16720876 593.73113042 621.38344942 589.16487813 610.60398865 584.58842468 C607.00433818 583.06027237 603.4041349 581.53345677 599.80249023 580.01000977 C593.81946572 577.47816543 587.84079002 574.94050163 581.890625 572.33203125 C581.01398193 571.95135498 580.13733887 571.57067871 579.23413086 571.1784668 C577.68673788 570.50531419 576.14286524 569.82397153 574.60375977 569.13208008 C570.57317032 567.38910933 567.39099624 566.65855395 563 567 C561.98046285 570.39351456 561.84671761 573.53953742 561.7890625 577.07421875 C560.3450822 644.53769594 536.54791901 707.46467723 490 757 C489.47696289 757.55703613 488.95392578 758.11407227 488.41503906 758.68798828 C470.91973041 777.16188177 450.6864911 791.29199552 427.73242188 802.16992188 C426.26229019 802.87432544 424.80877092 803.61323627 423.359375 804.359375 C409.4368033 811.27574933 393.25637549 815.27009363 378 818 C377.30600098 818.12858398 376.61200195 818.25716797 375.89697266 818.38964844 C322.32134816 828.26159312 265.51629538 818.44590777 220.14331055 787.51000977 C212.03474991 781.79734915 204.42970767 775.56207738 197 769 C196.15308594 768.27554688 195.30617188 767.55109375 194.43359375 766.8046875 C181.62252624 755.6592644 170.90589693 742.73984593 161 729 C160.23623047 727.94087402 160.23623047 727.94087402 159.45703125 726.86035156 C146.29394292 708.37619475 136.38892537 688.42387995 129 667 C128.75169434 666.30390625 128.50338867 665.6078125 128.24755859 664.890625 C110.45891603 614.79149585 118.29762369 559.75303935 139 512 C139.35352539 511.18241211 139.70705078 510.36482422 140.07128906 509.52246094 C151.80421684 482.74202462 168.88332156 457.17930808 189 436 C190.08990371 434.7347971 191.1736056 433.46421593 192.25 432.1875 C200.96796986 422.19473266 210.57006396 413.17292031 221 405 C222.19973776 404.02437056 223.39753815 403.04635559 224.59375 402.06640625 C233.31350422 394.94821673 242.26883646 388.53521217 251.85546875 382.6171875 C252.50314209 382.21266357 253.15081543 381.80813965 253.81811523 381.39135742 C255.08354248 380.60280418 256.35504943 379.82390553 257.63305664 379.0559082 C259.55512409 377.89297315 259.55512409 377.89297315 262 376 C262.3349379 372.77935914 262.3349379 372.77935914 259.62109375 370.36328125 C258.56644553 369.3395631 257.50480446 368.32301616 256.4375 367.3125 C255.32231692 366.22982007 254.2090265 365.14518719 253.09765625 364.05859375 C252.55898926 363.53249512 252.02032227 363.00639648 251.46533203 362.46435547 C249.67537978 360.67559612 248.01211108 358.80402968 246.375 356.875 C240.55704808 350.06615602 234.12027412 343.84937062 227.31640625 338.03515625 C224.83157076 335.85202086 222.42160319 333.60126129 220.01098633 331.33691406 C213.5491083 325.27041403 206.9398072 319.51987375 200 314 C198.87145458 313.08058123 197.74390462 312.15993964 196.6171875 311.23828125 C141.26700253 266.1533383 74.50677145 230.04074347 5 213 C4.15179687 212.79004395 3.30359375 212.58008789 2.4296875 212.36376953 C-53.02583925 198.80873669 -110.29116264 202.73204029 -161 230 C-161.64743164 230.34111816 -162.29486328 230.68223633 -162.96191406 231.03369141 C-187.1278792 243.80679016 -211.67320034 261.68839221 -229 283 C-229.43812012 283.52577637 -229.87624023 284.05155273 -230.32763672 284.59326172 C-237.31356176 292.9795964 -243.66347572 301.44569869 -249 311 C-249.60739014 312.07556152 -249.60739014 312.07556152 -250.22705078 313.17285156 C-256.01722967 323.50828846 -260.81249665 333.56940396 -264 345 C-264.29390625 346.03511719 -264.5878125 347.07023437 -264.890625 348.13671875 C-268.17735937 360.46197263 -269.41456534 372.63801806 -269.375 385.375 C-269.37412384 386.07042908 -269.37324768 386.76585815 -269.37234497 387.48236084 C-269.28605273 408.40330129 -265.00292678 427.35053995 -258 447 C-257.57332031 448.21816406 -257.14664063 449.43632813 -256.70703125 450.69140625 C-248.69774809 471.95913352 -237.72925119 492.58863884 -226 512 C-225.51853516 512.8058252 -225.03707031 513.61165039 -224.54101562 514.44189453 C-217.20165986 526.66843814 -208.97370841 537.9282486 -200 549 C-199.43603516 549.69754395 -198.87207031 550.39508789 -198.29101562 551.11376953 C-196.09576962 553.82595645 -193.89703585 556.53516704 -191.68823242 559.23632812 C-188.19369255 563.51069429 -184.76628328 567.8309167 -181.375 572.1875 C-176.92970343 577.88884849 -172.31079141 583.42029801 -167.6171875 588.91796875 C-165.20503476 591.74683013 -162.84580002 594.61575122 -160.5 597.5 C-156.75147354 602.1053325 -152.92915754 606.64204444 -149.08374023 611.16625977 C-146.2045468 614.55954109 -143.36795763 617.98267786 -140.5625 621.4375 C-135.66427761 627.45133177 -130.61086754 633.32633404 -125.54833984 639.20166016 C-123.5261448 641.5503654 -121.50924195 643.90357687 -119.49291992 646.25732422 C-118.49736436 647.4194298 -117.50143306 648.5812136 -116.50512695 649.74267578 C-113.97481431 652.69257556 -111.44865938 655.6458767 -108.9296875 658.60546875 C-104.29869618 664.03941123 -99.64454156 669.42976081 -94.8125 674.6875 C-91.66073175 678.11898144 -88.65975619 681.61146509 -85.75 685.25 C-80.86920354 691.30322977 -75.55239055 696.908303 -70.22265625 702.5625 C-67.32682346 705.63772066 -64.52478404 708.77879526 -61.76953125 711.98046875 C-59.39115503 714.6948628 -56.94487646 717.34569125 -54.5 720 C-50.8582429 723.95581801 -47.2650031 727.94561843 -43.7421875 732.0078125 C-41.68499601 734.36020635 -39.59403085 736.68034966 -37.5 739 C-32.66772724 744.36016811 -27.90181144 749.77009574 -23.21484375 755.2578125 C-22.18492521 756.46356676 -21.15497647 757.66929523 -20.125 758.875 C-19.60534668 759.48351807 -19.08569336 760.09203613 -18.55029297 760.71899414 C-15.52107467 764.25623858 -12.44851417 767.74392577 -9.3125 771.1875 C-5.46148995 775.42708043 -1.85156045 779.82932112 1.75 784.28125 C3.93501569 786.92147729 6.19171391 789.4672972 8.5 792 C12.72415948 796.64584838 16.69892532 801.45689808 20.64697266 806.33789062 C22.18583116 808.22828195 23.73834595 810.10692707 25.29296875 811.984375 C32.16044651 820.27843026 38.93745629 828.6278038 45.54443359 837.13085938 C47.1241809 839.15946477 48.712145 841.18147426 50.30078125 843.203125 C58.16612913 853.23334886 65.81913646 863.40188757 73.32373047 873.70458984 C74.89608197 875.85769919 76.47965087 878.00202698 78.06640625 880.14453125 C115.68748868 931.23362313 148.9253679 987.22870436 173 1046 C173.42555176 1047.02851074 173.85110352 1048.05702148 174.28955078 1049.11669922 C190.52281881 1088.56064068 202.55465268 1128.99635598 210 1171 C210.19577637 1172.06460449 210.39155273 1173.12920898 210.59326172 1174.22607422 C218.44188113 1217.06102852 220.29271878 1262.74615502 215 1306 C214.84402344 1307.30936523 214.68804688 1308.61873047 214.52734375 1309.96777344 C211.33777356 1336.27586569 206.5189679 1362.24689922 197.89257812 1387.37255859 C196.85279187 1390.43332983 195.85757534 1393.50745183 194.859375 1396.58203125 C182.02459676 1435.5582913 163.36886698 1472.2679574 140 1506 C139.59571777 1506.58442871 139.19143555 1507.16885742 138.77490234 1507.77099609 C132.51307776 1516.77779807 125.86683065 1525.44793145 119 1534 C118.21496094 1534.98097656 117.42992188 1535.96195313 116.62109375 1536.97265625 C112.2660746 1542.3577321 107.76134292 1547.56784396 103.09765625 1552.6875 C101.30492554 1554.66384372 99.55204773 1556.6645673 97.8125 1558.6875 C88.9592644 1568.81124549 79.61709325 1578.47732894 70.125 1588 C69.34092773 1588.78866455 68.55685547 1589.5773291 67.74902344 1590.38989258 C63.5659321 1594.56190112 59.29984256 1598.56876279 54.82226562 1602.42285156 C52.21688501 1604.67777637 49.70884796 1607.02644372 47.1875 1609.375 C41.6433473 1614.49005227 35.89020796 1619.28627538 30 1624 C28.86916043 1624.92240375 27.73898485 1625.84562196 26.609375 1626.76953125 C-4.53181415 1652.12248911 -38.88107721 1673.52398715 -74.99853516 1691.02587891 C-77.1031159 1692.05018693 -79.19769192 1693.09352642 -81.29296875 1694.13671875 C-94.52349337 1700.64677241 -108.16086585 1705.93425217 -122 1711 C-123.15322754 1711.42458496 -124.30645508 1711.84916992 -125.49462891 1712.28662109 C-181.24290995 1732.65069051 -239.95603585 1741.68226468 -299.18939209 1741.3225708 C-302.20192893 1741.3090756 -305.21431977 1741.31442672 -308.2268734 1741.31943417 C-325.90481238 1741.34162582 -343.39689703 1740.78102963 -361 1739 C-362.49661701 1738.85750334 -363.99327701 1738.71545707 -365.48999023 1738.57397461 C-369.33244928 1738.20001468 -373.16631017 1737.76843338 -377 1737.3125 C-378.0075383 1737.19285889 -378.0075383 1737.19285889 -379.03543091 1737.07080078 C-394.0761511 1735.25009237 -408.78596189 1732.14893606 -423.54589844 1728.78125 C-426.43476175 1728.1278458 -429.32570665 1727.50345072 -432.2265625 1726.90625 C-464.17121793 1720.29148282 -495.03909951 1708.69409388 -525 1696 C-526.17320801 1695.51080078 -526.17320801 1695.51080078 -527.37011719 1695.01171875 C-551.79744505 1684.80462547 -575.60627758 1672.4123193 -598.22167969 1658.68408203 C-601.01587096 1656.9903798 -603.82286375 1655.31974848 -606.6328125 1653.65234375 C-648.27867469 1628.79679645 -687.77463877 1600.15006382 -725.26025391 1569.42382812 C-726.81948327 1568.14773696 -728.384011 1566.87812619 -729.94921875 1565.609375 C-740.90497094 1556.71682286 -751.55739744 1547.48854419 -762 1538 C-763.62449734 1536.54110676 -765.2495068 1535.08278358 -766.875 1533.625 C-768.58381759 1532.08387011 -770.29213059 1530.54218059 -772 1529 C-772.92554688 1528.16855469 -773.85109375 1527.33710938 -774.8046875 1526.48046875 C-781.09381351 1520.78355487 -787.16710772 1514.9225862 -793.10449219 1508.85864258 C-795.64886112 1506.2751925 -798.15441325 1503.8747672 -800.9765625 1501.5859375 C-804.03951413 1498.96620368 -806.51267628 1496.1922935 -809.12109375 1493.13671875 C-812.39735693 1489.41090594 -815.96181303 1485.97489204 -819.5 1482.5 C-824.32589337 1477.76043746 -828.99306816 1472.97333242 -833.40527344 1467.84423828 C-835.66528058 1465.23062929 -838.0199335 1462.71583715 -840.375 1460.1875 C-844.62485297 1455.58821468 -848.63576503 1450.8491206 -852.5625 1445.96875 C-855.42926803 1442.47717355 -858.39793318 1439.08490453 -861.375 1435.6875 C-866.98033859 1429.26473307 -872.30591726 1422.67283426 -877.51074219 1415.92333984 C-879.14557387 1413.81199493 -880.794484 1411.71213969 -882.4453125 1409.61328125 C-889.04791414 1401.20434973 -895.50036159 1392.72882832 -901.625 1383.96533203 C-903.20228102 1381.71087318 -904.78864093 1379.46292346 -906.375 1377.21484375 C-941.49810811 1327.35453367 -974.23072573 1274.18084337 -996 1217 C-996.44794922 1215.8253418 -996.89589844 1214.65068359 -997.35742188 1213.44042969 C-998.75241318 1209.75705904 -1000.13052156 1206.06792942 -1001.5 1202.375 C-1001.95479736 1201.15176025 -1002.40959473 1199.92852051 -1002.87817383 1198.66821289 C-1005.39273588 1191.81982202 -1007.65173826 1184.93919321 -1009.71484375 1177.94140625 C-1010.40149633 1175.6762305 -1011.09127789 1173.4120279 -1011.78173828 1171.14801025 C-1012.42198685 1168.98979336 -1013.00797745 1166.82146378 -1013.59375 1164.64794922 C-1015.6739921 1157.37694027 -1015.6739921 1157.37694027 -1020.78710938 1152.05322266 C-1023.83484952 1150.76441262 -1026.79887782 1149.82524914 -1030 1149 C-1031.18851563 1148.5359375 -1032.37703125 1148.071875 -1033.6015625 1147.59375 C-1040.49088885 1145.10148724 -1047.40839839 1142.99094686 -1054.47631836 1141.08813477 C-1061.43175251 1139.20069771 -1068.30709787 1137.08064863 -1075.1875 1134.9375 C-1081.86932271 1132.85925976 -1088.53173417 1130.79342149 -1095.3125 1129.0625 C-1120.91194108 1122.42127357 -1147.09402957 1115.19203748 -1169 1100 C-1169.79825195 1099.45504883 -1170.59650391 1098.91009766 -1171.41894531 1098.34863281 C-1181.8646187 1091.21334847 -1192.06847841 1083.83402466 -1202 1076 C-1203.14778263 1075.1085312 -1204.29624263 1074.21793398 -1205.4453125 1073.328125 C-1212.41499813 1067.91536404 -1219.21599194 1062.34035568 -1225.92578125 1056.609375 C-1228.70733088 1054.23730965 -1231.53348661 1051.92507288 -1234.375 1049.625 C-1240.74013872 1044.44235439 -1246.90896467 1039.03968006 -1253.09912109 1033.65087891 C-1257.81509268 1029.55514299 -1262.56288671 1025.4963987 -1267.31347656 1021.44091797 C-1268.425798 1020.49058197 -1269.53714909 1019.53910889 -1270.64746094 1018.58642578 C-1277.17046537 1012.98996222 -1283.77901475 1007.540869 -1290.56298828 1002.26318359 C-1295.05626948 998.76264713 -1299.47121969 995.1746917 -1303.875 991.5625 C-1309.82426214 986.69368022 -1315.89463104 982.02715717 -1322.06982422 977.44946289 C-1326.62685042 974.06094781 -1331.08437896 970.57043451 -1335.5 967 C-1341.17773267 962.4127076 -1346.95749675 957.99075763 -1352.81518555 953.63623047 C-1357.8710484 949.86973738 -1362.85019833 946.01367238 -1367.8125 942.125 C-1374.70420427 936.73397453 -1381.6912382 931.49157962 -1388.75097656 926.32299805 C-1394.55573648 922.07245016 -1400.31645891 917.76702091 -1406.0625 913.4375 C-1414.56512912 907.04077757 -1423.15857845 900.78117845 -1431.80419922 894.57958984 C-1433.98001966 893.01437323 -1436.14922806 891.4404372 -1438.31640625 889.86328125 C-1515.00078241 834.09047308 -1596.23762676 785.16267847 -1702.89013672 730.96731567 C-1704.80953186 730.0035893 -1706.72833392 729.03868062 -1708.64648438 728.07247925 C-1718.13882941 723.29468089 -1727.63068191 718.61949894 -1737.40571594 714.44589233 C-1741.68356024 712.61010337 -1745.84737217 710.61703734 -1750 708.5078125 C-1757.54733382 704.67651606 -1765.24593584 701.26048813 -1773 697.875 C-1774.49324368 697.22047783 -1775.98640616 696.5657704 -1777.47949219 695.91088867 C-1780.51848143 694.57896563 -1783.55859603 693.2496581 -1786.59960938 691.92236328 C-1790.04747316 690.4172432 -1793.49229506 688.90534538 -1796.93588257 687.39047241 C-1813.61740299 680.05684504 -1830.42485461 673.10280198 -1847.37988281 666.42773438 C-1850.84811178 665.05990304 -1854.31132581 663.68010422 -1857.7734375 662.296875 C-1883.28848699 652.13838033 -1909.05780932 642.55546338 -1935.07275391 633.75146484 C-1938.91665654 632.44636807 -1942.68810265 631.1343832 -1946.41796875 629.52734375 C-1951.6370911 627.30196007 -1956.99386902 625.54153876 -1962.375 623.75 C-1963.55658691 623.35594971 -1964.73817383 622.96189941 -1965.95556641 622.5559082 C-1977.03360137 618.90819064 -1988.22651171 615.76948639 -1999.47558594 612.70068359 C-2002.50352492 611.86024018 -2005.50372385 610.94682326 -2008.5 610 C-2017.9392658 607.03191777 -2027.50192038 604.47041392 -2037.03515625 601.82421875 C-2039.54541649 601.12637302 -2042.05439659 600.42429633 -2044.5625 599.71875 C-2089.89961058 586.98600096 -2135.58527618 576.4440167 -2181.75 567.1875 C-2182.69113647 566.99850128 -2183.63227295 566.80950256 -2184.60192871 566.61477661 C-2195.08494514 564.51392128 -2205.57575982 562.50677159 -2216.11035156 560.68188477 C-2219.68434035 560.05533752 -2223.24850942 559.39170849 -2226.8125 558.7109375 C-2268.15492166 550.94958998 -2310.20186106 545.64304896 -2352 541 C-2353.45412731 540.83551388 -2354.90822773 540.67078995 -2356.36230469 540.50585938 C-2420.50419327 533.25903071 -2484.44730577 531.24139797 -2549 530 C-2549 462.35 -2549 394.7 -2549 325 C-2513.34496466 325 -2513.34496466 325 -2500.875 325.25 C-2499.96242432 325.26822815 -2499.04984863 325.2864563 -2498.10961914 325.30523682 C-2453.10431807 326.2727165 -2407.80873559 328.66422212 -2363 333 C-2361.88069092 333.1074353 -2360.76138184 333.21487061 -2359.6081543 333.32556152 C-2305.29425468 338.55596109 -2251.24235464 345.1342355 -2197.5002594 354.69406128 C-2191.63923261 355.73076244 -2185.76843413 356.68230602 -2179.88671875 357.59375 C-2173.15969574 358.6385345 -2166.47913305 359.80259071 -2159.8125 361.1875 C-2157.68891938 361.62166786 -2155.56521175 362.05521477 -2153.44140625 362.48828125 C-2152.27754395 362.72627441 -2151.11368164 362.96426758 -2149.91455078 363.20947266 C-2145.45565749 364.10992772 -2140.99195124 364.98389199 -2136.52734375 365.85546875 C-2117.58783179 369.56356989 -2098.79225114 373.54308198 -2080.06884766 378.23583984 C-2075.55434873 379.35997522 -2071.02778541 380.43090898 -2066.5 381.5 C-2064.83325816 381.89681979 -2063.16659302 382.2939619 -2061.5 382.69140625 C-2058.54238144 383.3961513 -2055.58415735 384.09812491 -2052.625 384.79638672 C-2038.66703747 388.09222566 -2024.78595742 391.50016398 -2011.0234375 395.5390625 C-2005.76503786 397.08177356 -2000.47873654 398.5122859 -1995.1875 399.9375 C-1978.49527242 404.4573237 -1961.92208655 409.37475974 -1945.39428711 414.46044922 C-1941.05405771 415.79041873 -1936.71445413 417.09686203 -1932.33203125 418.28125 C-1915.39328843 422.87260636 -1898.88629743 428.76324467 -1882.30514526 434.48660278 C-1875.34243804 436.88814862 -1868.36554774 439.24306886 -1861.375 441.5625 C-1859.9672229 442.03079224 -1859.9672229 442.03079224 -1858.53100586 442.50854492 C-1854.57408098 443.82271268 -1850.61440985 445.12745495 -1846.6484375 446.4140625 C-1845.98021973 446.63247803 -1845.31200195 446.85089355 -1844.62353516 447.07592773 C-1842.95346761 447.6210827 -1841.28154496 448.16054708 -1839.609375 448.69921875 C-1836.47211164 449.82985587 -1833.43250641 451.06698264 -1830.36328125 452.3671875 C-1824.13783288 454.98754144 -1817.81734123 457.22648817 -1811.4375 459.4375 C-1796.72894843 464.61938258 -1782.27153592 470.36864151 -1767.82475281 476.23553467 C-1763.32111251 478.06401547 -1758.81151989 479.87642007 -1754.29501343 481.67288208 C-1712.81075215 498.17476793 -1672.23184254 516.68502444 -1632.03515625 536.09375 C-1628.07178235 538.00688302 -1624.10075484 539.90224127 -1620.12109375 541.78125 C-1596.15351597 553.12645365 -1572.53839723 565.24673697 -1549.328125 578.0703125 C-1544.27476153 580.86134759 -1539.18574311 583.58324748 -1534.09399414 586.3034668 C-1524.43656302 591.46752424 -1514.87208998 596.72452331 -1505.47265625 602.34375 C-1501.07280855 604.97136686 -1496.63060668 607.5226248 -1492.18579102 610.07324219 C-1469.96788659 622.82453255 -1447.79394238 635.70090677 -1426.24609375 649.56201172 C-1423.88043522 651.07654745 -1421.50403303 652.5729748 -1419.125 654.06640625 C-1404.22793605 663.439729 -1389.60003326 673.2055275 -1374.97851562 683.00024414 C-1370.7789909 685.81271048 -1366.57273227 688.61454604 -1362.359375 691.40625 C-1332.91431334 710.92232746 -1304.22751879 731.48398166 -1276.01171875 752.734375 C-1273.74739612 754.43775649 -1271.47914698 756.13519819 -1269.20703125 757.828125 C-1260.94792517 763.98828686 -1252.78516107 770.25204173 -1244.70898438 776.64990234 C-1243.00308513 777.99756275 -1241.2916741 779.33786478 -1239.578125 780.67578125 C-1231.87248578 786.69574365 -1224.26116459 792.82363762 -1216.68359375 799.00390625 C-1213.74396592 801.39996053 -1210.78469991 803.7693991 -1207.8125 806.125 C-1203.42816888 809.61922362 -1199.15306978 813.23310445 -1194.88378906 816.8659668 C-1191.47493282 819.7634946 -1188.03625139 822.61763123 -1184.5625 825.4375 C-1176.1320845 832.3071826 -1167.85781695 839.37009268 -1159.8125 846.6875 C-1156.58460289 849.62242751 -1153.28491647 852.40416026 -1149.875 855.125 C-1144.27148201 859.65245123 -1139.05059067 864.54350093 -1133.83349609 869.50830078 C-1129.95570156 873.19469574 -1126.00405541 876.76220724 -1121.9621582 880.26757812 C-1119.42124249 882.51099456 -1116.97404543 884.84340456 -1114.5246582 887.18579102 C-1108.02917304 893.37916059 -1101.4917981 899.02383019 -1094 904 C-1092.93072266 904.71687988 -1092.93072266 904.71687988 -1091.83984375 905.44824219 C-1077.45296187 915.06873841 -1062.94375833 924.17506538 -1047 931 C-1047.01957764 930.34733154 -1047.03915527 929.69466309 -1047.05932617 929.0222168 C-1047.18019516 921.79118165 -1046.47288118 914.94195601 -1045.3125 907.8125 C-1045.13243408 906.68610107 -1044.95236816 905.55970215 -1044.7668457 904.39916992 C-1041.56314727 884.81979636 -1037.34434952 865.812958 -1031 847 C-1030.6807959 846.0522168 -1030.3615918 845.10443359 -1030.03271484 844.12792969 C-1019.00568942 811.97710569 -1003.10986864 781.67059536 -982 755 C-980.94232422 753.62521484 -980.94232422 753.62521484 -979.86328125 752.22265625 C-952.877231 717.57322459 -915.58261989 689.54952134 -874 675 C-873.31647461 674.75588379 -872.63294922 674.51176758 -871.92871094 674.26025391 C-858.24785054 669.43009752 -844.2815653 666.45633108 -830 664 C-829.24525391 663.86577637 -828.49050781 663.73155273 -827.71289062 663.59326172 C-816.52309948 661.68992643 -805.19211297 661.7990903 -793.875 661.75 C-793.11190521 661.7445517 -792.34881042 661.73910339 -791.56259155 661.73348999 C-776.5214741 661.6536464 -762.12083297 663.17762902 -747.4375 666.625 C-746.33470703 666.88297363 -745.23191406 667.14094727 -744.09570312 667.40673828 C-691.29687448 680.21355204 -642.87735577 711.89940665 -612 757 C-611.49710449 757.72832031 -610.99420898 758.45664063 -610.47607422 759.20703125 C-597.66072975 777.99800168 -588.4574228 798.22841395 -582 820 C-581.67515625 821.03382813 -581.3503125 822.06765625 -581.015625 823.1328125 C-573.7821213 848.45007546 -573.47365003 879.11656194 -578 905 C-578.11827148 905.72880371 -578.23654297 906.45760742 -578.35839844 907.20849609 C-580.82571645 922.21644449 -585.24259175 936.57756721 -590 951 C-590.23912109 951.74137207 -590.47824219 952.48274414 -590.72460938 953.24658203 C-599.89108148 981.33124234 -615.50107704 1008.37046122 -633 1032 C-633.43699219 1032.59538574 -633.87398437 1033.19077148 -634.32421875 1033.80419922 C-639.6381361 1041.01682011 -645.34255132 1047.75138751 -651.46484375 1054.28125 C-653.61375393 1056.58578234 -655.69641291 1058.92353963 -657.75 1061.3125 C-663.35485948 1067.75609142 -669.50419122 1073.46902637 -676 1079 C-676.83917969 1079.72832031 -677.67835937 1080.45664063 -678.54296875 1081.20703125 C-692.67645591 1093.27410511 -707.91241799 1103.71982747 -724 1113 C-724.84546387 1113.48855469 -725.69092773 1113.97710938 -726.56201172 1114.48046875 C-744.89118326 1124.97934264 -763.87382818 1133.18935815 -783.625 1140.625 C-784.78153076 1141.06344238 -785.93806152 1141.50188477 -787.12963867 1141.95361328 C-788.21349854 1142.35306152 -789.2973584 1142.75250977 -790.4140625 1143.1640625 C-791.85193115 1143.69700928 -791.85193115 1143.69700928 -793.31884766 1144.24072266 C-796.01887794 1145.00534606 -798.21041138 1145.14882028 -801 1145 C-793.0025727 1165.90349906 -782.37405357 1185.76539612 -771 1205 C-770.4313623 1205.96421875 -769.86272461 1206.9284375 -769.27685547 1207.921875 C-761.34902364 1221.30382501 -752.98358928 1234.30377705 -744 1247 C-743.47051758 1247.75087891 -742.94103516 1248.50175781 -742.39550781 1249.27539062 C-731.53037713 1264.63848726 -720.06593249 1279.55938931 -708 1294 C-707.57654297 1294.50837402 -707.15308594 1295.01674805 -706.71679688 1295.54052734 C-701.04256304 1302.34348467 -695.24907648 1309.00081011 -689.2578125 1315.52734375 C-687.34818849 1317.61867939 -685.47668748 1319.73258864 -683.625 1321.875 C-672.92974674 1334.12347207 -661.52408896 1345.63289501 -650.01708984 1357.11328125 C-647.23809327 1359.88688362 -644.46452717 1362.66583681 -641.69140625 1365.4453125 C-639.90396663 1367.23209181 -638.1162171 1369.01856115 -636.328125 1370.8046875 C-635.51023499 1371.62460175 -634.69234497 1372.44451599 -633.84967041 1373.28927612 C-629.59678464 1377.5250083 -625.27381167 1381.61321216 -620.7169342 1385.5211792 C-618.14267305 1387.73842837 -615.67356254 1390.05931097 -613.1875 1392.375 C-608.53961458 1396.6687538 -603.75583652 1400.7353184 -598.82421875 1404.703125 C-596.33750906 1406.7255113 -593.89673716 1408.79204745 -591.46728516 1410.88256836 C-583.91092001 1417.3718663 -576.05394801 1423.42260963 -568.09814453 1429.41210938 C-566.15730637 1430.88094943 -564.23088514 1432.36639362 -562.30859375 1433.859375 C-537.8424932 1452.73079356 -511.20649397 1469.40596534 -484 1484 C-483.09894531 1484.48936035 -482.19789063 1484.9787207 -481.26953125 1485.48291016 C-468.80961354 1492.23203225 -456.1832685 1498.42623269 -443.1875 1504.0625 C-442.56387573 1504.33422028 -441.94025146 1504.60594055 -441.29772949 1504.88589478 C-434.21942608 1507.95745897 -427.13300417 1510.71167136 -419.78613281 1513.06787109 C-417.15850704 1513.94696987 -414.62362 1514.93951623 -412.06640625 1516.00390625 C-393.67298154 1523.50701738 -373.54428189 1527.76092839 -354 1531 C-353.04174316 1531.16371094 -352.08348633 1531.32742188 -351.09619141 1531.49609375 C-304.52856278 1539.11439095 -258.71999114 1532.7629255 -213.85791016 1519.80761719 C-211.04324662 1519.01222107 -208.21737139 1518.27516133 -205.38671875 1517.5390625 C-200.06844334 1516.09867638 -195.07867179 1514.11706082 -190 1512 C-188.51104306 1511.42208992 -187.02017693 1510.84907209 -185.52734375 1510.28125 C-153.91537848 1498.08502133 -124.47524046 1482.18724303 -98 1461 C-97.10410156 1460.29746094 -96.20820313 1459.59492188 -95.28515625 1458.87109375 C-77.44021164 1444.64230532 -61.65183172 1428.26543184 -48 1410 C-47.47374023 1409.2982666 -46.94748047 1408.5965332 -46.40527344 1407.87353516 C-21.0769675 1373.92646628 -0.23676384 1334.03655195 7 1292 C7.226875 1290.70191406 7.45375 1289.40382813 7.6875 1288.06640625 C14.90555682 1240.26603983 4.9368642 1188.13386299 -12.5546875 1143.68359375 C-13.75264823 1140.63041276 -14.88379185 1137.56287391 -15.99243164 1134.4765625 C-26.60281089 1105.25795578 -40.95157275 1077.55766944 -57 1051 C-57.45616699 1050.24251465 -57.91233398 1049.4850293 -58.38232422 1048.70458984 C-72.02858041 1026.14970505 -87.46811813 1004.52446611 -104 984 C-104.515625 983.35820801 -105.03125 982.71641602 -105.5625 982.05517578 C-112.47876654 973.45764132 -119.5063517 964.96349161 -126.66601562 956.56787109 C-128.00589089 954.99307627 -129.33983846 953.41346003 -130.671875 951.83203125 C-140.19561632 940.52744176 -149.81608968 929.31522335 -159.80078125 918.4140625 C-162.31598931 915.6531414 -164.77278871 912.84613252 -167.22265625 910.02734375 C-169.29359487 907.66510827 -171.39512848 905.33204147 -173.5 903 C-176.18983431 900.01937279 -178.86310364 897.02754767 -181.5 894 C-185.61082427 889.28297123 -189.8074226 884.64430291 -194 880 C-195.50028679 878.33359149 -197.00028872 876.66692647 -198.5 875 C-199.2425 874.175 -199.985 873.35 -200.75 872.5 C-234.5 835 -234.5 835 -236.7421875 832.5078125 C-238.26708244 830.81407106 -239.79315402 829.12138831 -241.3203125 827.4296875 C-245.31243726 823.0045187 -249.27325892 818.55662865 -253.1875 814.0625 C-255.27211164 811.69035571 -257.38428644 809.34443935 -259.5 807 C-264.33227276 801.63983189 -269.09818856 796.22990426 -273.78515625 790.7421875 C-274.81507479 789.53643324 -275.84502353 788.33070477 -276.875 787.125 C-277.39465332 786.51648193 -277.91430664 785.90796387 -278.44970703 785.28100586 C-281.47892533 781.74376142 -284.55148583 778.25607423 -287.6875 774.8125 C-291.44149176 770.67572196 -294.97146456 766.39278769 -298.484375 762.05078125 C-301.42925361 758.47943002 -304.45729425 754.98796906 -307.5 751.5 C-312.79017262 745.42957269 -317.93657079 739.26143095 -323 733 C-324.51998969 731.14514167 -326.04083103 729.29098094 -327.5625 727.4375 C-367.62415196 678.42736908 -403.43307701 626.58087733 -432 570 C-432.49886719 569.01306152 -432.99773438 568.02612305 -433.51171875 567.00927734 C-441.18506505 551.71436504 -447.81641983 536.14098241 -453.82617188 520.12109375 C-454.82784148 517.4577526 -455.85453408 514.8062952 -456.890625 512.15625 C-465.84736973 488.61339263 -472.20311915 462.64932724 -475.62646484 437.71435547 C-475.88241491 435.85445169 -476.15439287 433.99670336 -476.43994141 432.14111328 C-481.12236909 401.43625723 -481.05548256 368.6458538 -476 338 C-475.88785156 337.27748047 -475.77570312 336.55496094 -475.66015625 335.81054688 C-475.05056262 331.93097261 -474.31921189 328.08859121 -473.48632812 324.25097656 C-473.12934337 322.5986676 -472.78324735 320.94399632 -472.44335938 319.28808594 C-465.76517951 286.90421373 -454.32891428 256.38736733 -439.07617188 227.07861328 C-437.86328826 224.73594289 -436.67432382 222.38174248 -435.484375 220.02734375 C-429.30542045 207.90010965 -422.51984828 196.34183283 -415 185 C-414.19876709 183.78884521 -414.19876709 183.78884521 -413.38134766 182.55322266 C-406.73384492 172.55529952 -399.82534768 162.85108531 -392.24804688 153.53613281 C-391.05728832 152.07051215 -389.87985085 150.59409851 -388.703125 149.1171875 C-383.5401558 142.6909386 -378.06606403 136.59526393 -372.45019531 130.56787109 C-370.97182413 128.96953781 -369.51155591 127.35622257 -368.0546875 125.73828125 C-361.39719978 118.373524 -354.41053109 111.60063698 -347 105 C-345.77023437 103.86304688 -345.77023437 103.86304688 -344.515625 102.703125 C-322.87974155 82.76417359 -297.85026785 66.11493507 -272.04101562 52.11083984 C-270.66116155 51.35984271 -269.28492764 50.60216157 -267.91210938 49.83837891 C-247.57889397 38.52929982 -225.96258096 29.62117806 -204 22 C-203.26700684 21.74025391 -202.53401367 21.48050781 -201.77880859 21.21289062 C-190.7784999 17.32110201 -179.68999584 14.26881644 -168.34277344 11.56591797 C-166.18368959 11.04437187 -164.03254323 10.50008444 -161.8828125 9.94140625 C-151.33701216 7.20423785 -140.71633616 4.96368259 -130 3 C-128.88141602 2.79310547 -128.88141602 2.79310547 -127.74023438 2.58203125 C-85.89860955 -4.94424499 -42.0988178 -5.37308526 0 0 Z " fill="#F2F7F0" transform="translate(2549,1594)"/>
<path d="M0 0 C1.00144043 -0.00563965 2.00288086 -0.0112793 3.03466797 -0.01708984 C12.86439197 0.07815629 21.96469453 1.38169181 30.9375 5.5 C31.61723877 5.80462158 32.29697754 6.10924316 32.99731445 6.4230957 C38.76330383 9.09090068 43.89436129 12.36297318 48.875 16.3125 C49.67808594 16.910625 50.48117187 17.50875 51.30859375 18.125 C62.3559562 27.54132111 72.69100874 43.57838659 73.875 58.3125 C74.47844941 68.70232462 74.30172303 78.38880209 70.875 88.3125 C70.61686523 89.06901855 70.35873047 89.82553711 70.09277344 90.60498047 C59.32240462 121.71739139 41.31787776 145.78255634 14.875 165.3125 C14.27478027 165.75754883 13.67456055 166.20259766 13.05615234 166.66113281 C2.26444691 174.62142262 -8.63076628 181.3461362 -20.875 186.875 C-21.93920166 187.35606201 -23.00340332 187.83712402 -24.09985352 188.33276367 C-44.63895907 197.52687629 -66.05357175 202.11562798 -88 206.6875 C-89.26013916 206.95038818 -90.52027832 207.21327637 -91.81860352 207.48413086 C-92.98963623 207.72397705 -94.16066895 207.96382324 -95.3671875 208.2109375 C-96.4072998 208.42411621 -97.44741211 208.63729492 -98.51904297 208.85693359 C-101.125 209.3125 -101.125 209.3125 -104.125 209.3125 C-108.7835548 156.59499386 -106.79656689 101.69116396 -81.125 54.3125 C-80.26068359 52.70955078 -80.26068359 52.70955078 -79.37890625 51.07421875 C-65.65493549 26.63731007 -46.47416053 9.22613401 -19.25 1.4375 C-12.86043292 0.10765168 -6.50192154 0.03478026 0 0 Z " fill="#008489" transform="translate(1752.125,2402.6875)"/>
<path d="M0 0 C8.88205866 33.26246932 8.88205866 33.26246932 11.59008789 49.61352539 C11.87576843 51.27673401 12.19252893 52.93477515 12.53295898 54.58764648 C14.19360514 63.1360238 14.33878591 71.53119711 14.31567383 80.20678711 C14.31252711 82.66631013 14.33600923 85.12461014 14.36132812 87.58398438 C14.49564176 121.8191796 2.19983544 154.11524348 -21.5 178.875 C-32.75710033 189.67057928 -46.98058555 198.98473704 -63 199.3125 C-85.07820621 198.66397032 -103.54965842 186.87238706 -118.53515625 171.37890625 C-131.10102519 156.87319476 -137.13657913 140.50817509 -136.21035767 121.28274536 C-135.88211978 117.72079525 -135.00822544 114.42176644 -133.96875 111.0078125 C-133.75000214 110.27963318 -133.53125427 109.55145386 -133.30587769 108.8012085 C-130.71393427 100.56565838 -126.99244597 92.94699349 -123.125 85.25 C-122.43501648 83.84823716 -121.74621238 82.44589317 -121.05859375 81.04296875 C-108.19481616 54.91372479 -108.19481616 54.91372479 -101 49 C-99.55367187 47.79150391 -99.55367187 47.79150391 -98.078125 46.55859375 C-76.49074043 28.89764275 -53.23159741 16.72592708 -27.12353516 7.15625 C-24.167107 6.06185859 -21.22859815 4.93008684 -18.29296875 3.78125 C-16.59123082 3.12477964 -14.88941325 2.46851569 -13.1875 1.8125 C-12.42373047 1.50868408 -11.65996094 1.20486816 -10.87304688 0.8918457 C-6.73756866 -0.6712105 -4.25358533 -1.06511426 0 0 Z " fill="#008489" transform="translate(2952,2071)"/>
</svg>
